<!DOCTYPE svg PUBLIC "-//W3C//DTD SVG 1.1//EN" "http://www.w3.org/Graphics/SVG/1.1/DTD/svg11.dtd">

<!-- Uploaded to: SVG Repo, www.svgrepo.com, Transformed by: SVG Repo Mixer Tools -->
<svg width="800px" height="800px" viewBox="-2.4 -2.4 28.80 28.80" fill="none" xmlns="http://www.w3.org/2000/svg">

<g id="SVGRepo_bgCarrier" stroke-width="0"/>

<g id="SVGRepo_tracerCarrier" stroke-linecap="round" stroke-linejoin="round"/>

<g id="SVGRepo_iconCarrier" stroke-linecap="round" stroke-linejoin="round"> <path d="M12 14L11.2929 14.7071L12 15.4142L12.7071 14.7071L12 14ZM13 5C13 4.44772 12.5523 4 12 4C11.4477 4 11 4.44771 11 5L13 5ZM6.29289 9.70711L11.2929 14.7071L12.7071 13.2929L7.70711 8.29289L6.29289 9.70711ZM12.7071 14.7071L17.7071 9.70711L16.2929 8.29289L11.2929 13.2929L12.7071 14.7071ZM13 14L13 5L11 5L11 14L13 14Z" fill="#33363F"/> <path d="M5 16L5 17C5 18.1046 5.89543 19 7 19L17 19C18.1046 19 19 18.1046 19 17V16" stroke="#33363F" stroke-width="2" stroke-linecap="round" stroke-linejoin="round"/> </g>

</svg>