<svg width="250" height="250" viewBox="0 0 250 250" fill="none" xmlns="http://www.w3.org/2000/svg">
<path d="M133.316 36C158.5 36 172.748 48.9312 185.105 70.5263C195.5 70.5263 203 87 203 96.4211C203 107.501 194.5 122.316 185.105 122.316V220.526H141.947V186H116.053V220.526H72.8947V186H47V96.4211H72.8947V70.5263C72.8947 54 96 36 133.316 36Z" fill="#FF0000"/>
<path d="M185.105 70.5263C172.748 48.9312 158.5 36 133.316 36C96 36 72.8947 54 72.8947 70.5263V96.4211M185.105 70.5263C195.5 70.5263 203 87 203 96.4211C203 107.501 194.5 122.316 185.105 122.316M185.105 70.5263H116.053C107.5 70.5263 98.7895 85.4962 98.7895 96.4211C98.7895 106 106.5 122.316 116.053 122.316H185.105M185.105 122.316V220.526H141.947V186M141.947 186C149.697 184.646 153.374 182.55 159.211 177.368M141.947 186H116.053V220.526H72.8947V186M72.8947 186H47V96.4211H72.8947M72.8947 186V96.4211" stroke="black" stroke-width="5" stroke-linecap="round" stroke-linejoin="round"/>
<path d="M203 96.4211C203 87 195.5 70.5263 185.105 70.5263H116.053C107.5 70.5263 98.7895 85.4962 98.7895 96.4211C98.7895 106 106.5 122.316 116.053 122.316H185.105C194.5 122.316 203 107.501 203 96.4211Z" fill="#CAF5FF" stroke="black" stroke-width="5" stroke-linecap="round" stroke-linejoin="round"/>
</svg>
