<!DOCTYPE svg PUBLIC "-//W3C//DTD SVG 1.1//EN" "http://www.w3.org/Graphics/SVG/1.1/DTD/svg11.dtd">
<!-- Uploaded to: SVG Repo, www.svgrepo.com, Transformed by: SVG Repo Mixer Tools -->
<svg version="1.1" id="Uploaded to svgrepo.com" xmlns="http://www.w3.org/2000/svg" xmlns:xlink="http://www.w3.org/1999/xlink" width="800px" height="800px" viewBox="0 0 32 32" xml:space="preserve" fill="#000000">
<g id="SVGRepo_bgCarrier" stroke-width="0"/>
<g id="SVGRepo_tracerCarrier" stroke-linecap="round" stroke-linejoin="round"/>
<g id="SVGRepo_iconCarrier"> <style type="text/css"> .avocado_een{fill:#231F20;} .avocado_achttien{fill:#D1712A;} .avocado_negentien{fill:#E0A838;} .st0{fill:#EAD13F;} .st1{fill:#788287;} .st2{fill:#FFFAEE;} .st3{fill:#DBD2C1;} .st4{fill:#3D3935;} .st5{fill:#6F9B45;} .st6{fill:#CC4121;} .st7{fill:#E598A3;} .st8{fill:#D36781;} .st9{fill:#8D3E93;} .st10{fill:#BF63C1;} .st11{fill:#A3AEB5;} .st12{fill:#AF9480;} .st13{fill:#716558;} .st14{fill:#0E608E;} .st15{fill:#248EBC;} .st16{fill:#C3CC6A;} </style> <g> <g> <path class="avocado_achttien" d="M16,29.5c-1.75,0-3.357-0.81-4.409-2.223l-0.177-0.238l-0.294,0.042 c-0.264,0.038-0.531,0.057-0.797,0.057c-1.469,0-2.843-0.565-3.869-1.591c-1.223-1.223-1.782-2.923-1.535-4.666l0.042-0.294 l-0.238-0.177C3.31,19.357,2.5,17.75,2.5,16s0.81-3.357,2.223-4.409l0.238-0.177L4.919,11.12C4.672,9.377,5.231,7.677,6.454,6.454 c1.026-1.026,2.399-1.591,3.869-1.591c0.266,0,0.533,0.019,0.797,0.057l0.294,0.042l0.177-0.238C12.643,3.31,14.25,2.5,16,2.5 s3.357,0.81,4.409,2.223l0.177,0.238l0.294-0.042c0.264-0.038,0.531-0.057,0.797-0.057c1.469,0,2.843,0.565,3.869,1.591 c1.223,1.223,1.782,2.923,1.535,4.666l-0.042,0.294l0.238,0.177C28.69,12.643,29.5,14.25,29.5,16s-0.81,3.357-2.223,4.409 l-0.238,0.177l0.042,0.294c0.248,1.743-0.312,3.443-1.535,4.666c-1.026,1.026-2.399,1.591-3.868,1.591c0,0,0,0,0,0 c-0.266,0-0.533-0.019-0.797-0.057l-0.294-0.042l-0.177,0.238C19.357,28.69,17.75,29.5,16,29.5z"/> </g> <g> <path class="avocado_negentien" d="M16,24.5c-1.05,0-2.04-0.481-2.715-1.319l-0.171-0.213l-0.272,0.029 c-0.131,0.014-0.262,0.021-0.393,0.021c-0.936,0-1.809-0.358-2.459-1.008c-0.743-0.743-1.103-1.782-0.987-2.853l0.029-0.272 l-0.213-0.171C7.981,18.04,7.5,17.051,7.5,16s0.481-2.04,1.319-2.714l0.213-0.171l-0.029-0.272 c-0.116-1.07,0.244-2.11,0.987-2.853c0.65-0.65,1.523-1.008,2.459-1.008c0.131,0,0.262,0.007,0.393,0.021l0.272,0.029l0.171-0.213 C13.96,7.981,14.949,7.5,16,7.5s2.04,0.481,2.714,1.319l0.171,0.213l0.272-0.029c0.131-0.014,0.262-0.021,0.393-0.021 c0.937,0,1.81,0.358,2.459,1.008c0.743,0.743,1.103,1.782,0.987,2.853l-0.029,0.272l0.213,0.171C24.019,13.96,24.5,14.949,24.5,16 s-0.481,2.04-1.319,2.714l-0.213,0.171l0.029,0.272c0.116,1.07-0.244,2.11-0.987,2.853c-0.65,0.65-1.523,1.008-2.459,1.008l0,0 c-0.131,0-0.262-0.007-0.393-0.021l-0.272-0.029l-0.171,0.213C18.04,24.019,17.05,24.5,16,24.5z"/> </g> <path class="avocado_een" d="M30,16c0-1.972-0.956-3.716-2.424-4.81c0.256-1.805-0.288-3.701-1.676-5.089 c-1.167-1.167-2.693-1.738-4.222-1.738c-0.29,0-0.58,0.021-0.867,0.061C19.716,2.956,17.972,2,16,2s-3.716,0.956-4.81,2.424 c-0.288-0.041-0.578-0.061-0.867-0.061c-1.529,0-3.055,0.571-4.222,1.738C4.713,7.489,4.168,9.385,4.424,11.19 C2.956,12.284,2,14.028,2,16s0.956,3.716,2.424,4.81c-0.256,1.805,0.288,3.701,1.676,5.089c1.167,1.167,2.693,1.738,4.222,1.738 c0.29,0,0.58-0.021,0.867-0.061C12.284,29.044,14.028,30,16,30s3.716-0.956,4.81-2.424c0.288,0.041,0.578,0.061,0.867,0.061 c1.529,0,3.055-0.571,4.222-1.738c1.388-1.388,1.933-3.285,1.676-5.089C29.044,19.716,30,17.972,30,16z M26.978,20.008 l-0.476,0.355l0.084,0.588c0.225,1.585-0.283,3.131-1.393,4.242c-0.932,0.932-2.18,1.445-3.515,1.445 c-0.242,0-0.486-0.017-0.727-0.051l-0.588-0.084l-0.355,0.476C19.051,28.263,17.59,29,16,29s-3.051-0.737-4.008-2.022l-0.355-0.476 l-0.588,0.084c-0.24,0.034-0.485,0.051-0.727,0.051c-1.335,0-2.583-0.513-3.515-1.445c-1.111-1.111-1.618-2.657-1.393-4.242 l0.084-0.588l-0.476-0.355C3.737,19.051,3,17.59,3,16c0-1.591,0.737-3.051,2.022-4.008l0.476-0.355l-0.084-0.588 C5.189,9.464,5.697,7.918,6.808,6.808c0.932-0.932,2.18-1.445,3.515-1.445c0.242,0,0.487,0.017,0.727,0.051l0.588,0.084 l0.355-0.476C12.949,3.737,14.41,3,16,3s3.051,0.737,4.008,2.021l0.355,0.476l0.588-0.084c0.24-0.034,0.485-0.051,0.727-0.051 c1.335,0,2.583,0.513,3.515,1.445c1.111,1.111,1.618,2.657,1.393,4.242l-0.084,0.588l0.476,0.355C28.263,12.949,29,14.409,29,16 C29,17.59,28.263,19.051,26.978,20.008z M23.494,12.896c0.126-1.163-0.239-2.368-1.13-3.26c-0.777-0.778-1.794-1.154-2.813-1.154 c-0.149,0-0.298,0.008-0.447,0.024C18.371,7.595,17.26,7,16,7s-2.371,0.595-3.104,1.506c-0.148-0.016-0.297-0.024-0.447-0.024 c-1.019,0-2.036,0.377-2.813,1.154c-0.891,0.891-1.256,2.097-1.13,3.26C7.595,13.629,7,14.74,7,16c0,1.26,0.595,2.371,1.506,3.104 c-0.126,1.163,0.239,2.368,1.13,3.26c0.777,0.777,1.795,1.154,2.813,1.154c0.149,0,0.298-0.008,0.446-0.024 C13.629,24.405,14.74,25,16,25s2.371-0.595,3.104-1.506c0.148,0.016,0.297,0.024,0.446,0.024c1.019,0,2.036-0.377,2.813-1.154 c0.891-0.891,1.256-2.097,1.13-3.26C24.405,18.371,25,17.26,25,16C25,14.74,24.405,13.629,23.494,12.896z M22.867,18.325 l-0.426,0.343l0.059,0.544c0.099,0.919-0.208,1.81-0.843,2.445c-0.556,0.555-1.304,0.861-2.106,0.861 c-0.113,0-0.226-0.006-0.339-0.018l-0.544-0.059l-0.343,0.426C17.746,23.587,16.898,24,16,24s-1.746-0.413-2.325-1.133 l-0.343-0.426L12.788,22.5c-0.113,0.012-0.226,0.018-0.339,0.018c-0.803,0-1.551-0.306-2.106-0.861 C9.708,21.022,9.401,20.13,9.5,19.212l0.059-0.544l-0.426-0.343C8.413,17.746,8,16.898,8,16c0-0.898,0.413-1.746,1.133-2.325 l0.426-0.343L9.5,12.788c-0.099-0.919,0.208-1.81,0.843-2.445c0.556-0.556,1.304-0.861,2.106-0.861 c0.113,0,0.226,0.006,0.339,0.018l0.544,0.059l0.343-0.426C14.254,8.413,15.102,8,16,8s1.746,0.413,2.325,1.133l0.343,0.426 L19.212,9.5c0.113-0.012,0.226-0.018,0.339-0.018c0.803,0,1.551,0.306,2.106,0.861c0.635,0.635,0.943,1.526,0.843,2.445 l-0.059,0.544l0.426,0.343C23.587,14.254,24,15.102,24,16C24,16.898,23.587,17.746,22.867,18.325z"/> </g> </g>
</svg>