<!DOCTYPE svg PUBLIC "-//W3C//DTD SVG 1.1//EN" "http://www.w3.org/Graphics/SVG/1.1/DTD/svg11.dtd">
<!-- Uploaded to: SVG Repo, www.svgrepo.com, Transformed by: SVG Repo Mixer Tools -->
<svg fill="#000000" width="800px" height="800px" viewBox="0 0 24 24" xmlns="http://www.w3.org/2000/svg">
<g id="SVGRepo_bgCarrier" stroke-width="0"/>
<g id="SVGRepo_tracerCarrier" stroke-linecap="round" stroke-linejoin="round"/>
<g id="SVGRepo_iconCarrier">
<path d="M12,1A9.957,9.957,0,0,0,2,10.889a9.791,9.791,0,0,0,3.375,7.4v1.487A3.24,3.24,0,0,0,8.625,23h6.75a3.24,3.24,0,0,0,3.25-3.223V18.29A9.791,9.791,0,0,0,22,10.889,9.957,9.957,0,0,0,12,1Zm5,16.037a1,1,0,0,0-.379.784v1.956A1.239,1.239,0,0,1,15.375,21H15V18a1,1,0,0,0-2,0v3H11V18a1,1,0,0,0-2,0v3H8.625a1.239,1.239,0,0,1-1.25-1.223V17.821A1,1,0,0,0,7,17.037a7.813,7.813,0,0,1-3-6.148,8,8,0,0,1,16,0A7.813,7.813,0,0,1,17,17.037ZM11,13a2,2,0,1,1-2-2A2,2,0,0,1,11,13Zm6,0a2,2,0,1,1-2-2A2,2,0,0,1,17,13Z"/>
</g>
</svg>