<svg width="250" height="250" viewBox="0 0 250 250" fill="none" xmlns="http://www.w3.org/2000/svg">
<path fill-rule="evenodd" clip-rule="evenodd" d="M245.5 142.5L196.5 73L22.5 55L76 123L245.5 142.5ZM55.6703 75.4996L61.2353 70.572L184.068 84.1822L190.488 90.2669L55.6703 75.4996ZM73.9984 88.7408L68.4334 93.6683L203.252 108.436L196.831 102.351L73.9984 88.7408ZM82.1833 112.85L87.7483 107.923L210.581 121.533L217.001 127.617L82.1833 112.85Z" fill="url(#paint0_linear_1_45)"/>
<path d="M61.2353 70.572L55.6703 75.4996L190.488 90.2669L184.068 84.1822L61.2353 70.572Z" stroke="black" stroke-linejoin="round"/>
<path d="M73.9984 88.7408L68.4334 93.6683L203.252 108.436L196.831 102.351L73.9984 88.7408Z" stroke="black" stroke-linejoin="round"/>
<path d="M87.7483 107.923L82.1833 112.85L217.001 127.617L210.581 121.533L87.7483 107.923Z" stroke="black" stroke-linejoin="round"/>
<path d="M196.5 73L245.5 142.5L76 123L22.5 55L196.5 73Z" stroke="black" stroke-width="4" stroke-linejoin="round"/>
<path d="M245.5 142.5L189 195L9.5 175.5L74.5 123L245.5 142.5Z" fill="url(#paint1_linear_1_45)" stroke="black" stroke-width="4" stroke-linejoin="round"/>
<path d="M4 167.5L9.5 175.5L75.5 122L22.5 55L14 60.5L53 120L4 167.5Z" fill="#072417" stroke="black" stroke-width="4" stroke-linecap="round" stroke-linejoin="round"/>
<defs>
<linearGradient id="paint0_linear_1_45" x1="149" y1="80.5" x2="120.5" y2="142" gradientUnits="userSpaceOnUse">
<stop stop-color="#232830"/>
<stop offset="1" stop-color="#716E96"/>
</linearGradient>
<linearGradient id="paint1_linear_1_45" x1="206" y1="71" x2="85" y2="195" gradientUnits="userSpaceOnUse">
<stop stop-color="#802392"/>
<stop offset="1" stop-color="#995FA3"/>
</linearGradient>
</defs>
</svg>
