<?xml version="1.0" ?><!-- Uploaded to: SVG Repo, www.svgrepo.com, Generator: SVG Repo Mixer Tools -->
<svg fill="#000000" width="800px" height="800px" viewBox="0 0 32 32" xmlns="http://www.w3.org/2000/svg"><path d="M25 17a1 1 0 11-2 0 1 1 0 012 0zm-4-1h-2a1 1 0 000 2h2a1 1 0 000-2zm8.924 10.383A1 1 0 0129 27H3a1 1 0 01-.707-1.707L5 22.586V7a1 1 0 011-1h20a1 1 0 011 1v8c0 .009-.005.016-.005.025C27.618 15.859 28 16.882 28 18s-.382 2.141-1.005 2.975c0 .009.005.016.005.025v1.586l2.707 2.707a1 1 0 01.217 1.09zM9 19H8c-.551 0-1 .449-1 1v5h2v-6zm0-2c0-3.86 3.14-7 7-7h4c1.9 0 3.697.784 5 2.11V8H7v9.184A2.964 2.964 0 018 17h1zm16 5.576A4.961 4.961 0 0123 23h-4c-2.757 0-5-2.243-5-5s2.243-5 5-5h3.991A5.009 5.009 0 0020 12h-4c-2.757 0-5 2.243-5 5v8h14v-2.424zM26 18c0-1.654-1.346-3-3-3h-4c-1.654 0-3 1.346-3 3s1.346 3 3 3h4c1.654 0 3-1.346 3-3z"/></svg>