<svg width="250" height="250" viewBox="0 0 250 250" fill="none" xmlns="http://www.w3.org/2000/svg">
<path fill-rule="evenodd" clip-rule="evenodd" d="M245.5 142.5L196.5 73L22.5 55L76 123L245.5 142.5ZM55.6703 75.4996L61.2353 70.572L184.068 84.1822L190.488 90.2669L55.6703 75.4996ZM73.9984 88.7408L68.4334 93.6683L203.252 108.436L196.831 102.351L73.9984 88.7408ZM82.1833 112.85L87.7483 107.923L210.581 121.533L217.001 127.617L82.1833 112.85Z" fill="url(#paint0_linear_1_45)"/>
<path d="M61.2353 70.572L55.6703 75.4996L190.488 90.2669L184.068 84.1822L61.2353 70.572Z" stroke="black" stroke-linejoin="round"/>
<path d="M73.9984 88.7408L68.4334 93.6683L203.252 108.436L196.831 102.351L73.9984 88.7408Z" stroke="black" stroke-linejoin="round"/>
<path d="M87.7483 107.923L82.1833 112.85L217.001 127.617L210.581 121.533L87.7483 107.923Z" stroke="black" stroke-linejoin="round"/>
<path d="M196.5 73L245.5 142.5L76 123L22.5 55L196.5 73Z" stroke="black" stroke-width="4" stroke-linejoin="round"/>
<path d="M245.5 142.5L189 195L9.5 175.5L74.5 123L245.5 142.5Z" fill="url(#paint1_linear_1_45)" stroke="black" stroke-width="4" stroke-linejoin="round"/>
<path d="M4 167.5L9.5 175.5L75.5 122L22.5 55L14 60.5L53 120L4 167.5Z" fill="#072417" stroke="black" stroke-width="4" stroke-linecap="round" stroke-linejoin="round"/>
<path d="M179 158.5C183.013 152.26 179.514 142.933 171.5 124.5C169.516 126.37 168.457 127.457 163.85 127.5C159.643 125.083 156.733 125.192 151.5 125.5C149.257 126.054 148.324 127.346 148 133.716C147.263 135.524 146.553 136.353 142.175 136C136.393 131.136 133.961 130.86 130 131.5C126.808 131.92 125.336 135.115 123 143.52C121.653 145.066 120.65 145.415 118.5 145.284C112.918 139.518 110.571 139.179 106.5 139C104.17 138.977 63.9021 167.019 55.5549 180.091L115 186.091C138.496 176.151 161.608 165.97 179 158.5Z" fill="#A5F8D3" stroke="black" stroke-width="5" stroke-linecap="round" stroke-linejoin="round"/>
<path d="M172 125.5C172.512 104.631 173.67 95.949 179.5 93.5C189.139 87.4306 193.038 90.1877 195.5 113.5C196.65 129.453 196.89 138.304 205.5 156C205.665 161.408 207.417 163.942 202.5 171C194.697 180.89 190.091 177.635 181.5 157.5C180.28 145.272 177.817 138.224 172 125.5Z" fill="#C4F5E0" stroke="black" stroke-width="5" stroke-linecap="round" stroke-linejoin="round"/>
<path d="M233.5 118.5C224.075 91.2692 210.567 90.2509 188 91C191.186 94.5887 192.917 96.9126 194 102C210.439 103.912 217.036 107.262 222 121.5C224.874 136.192 224.429 144.203 205.5 156.5C206.867 164.775 205.392 168.496 200 174C238.829 153.801 238.23 140.52 233.5 118.5Z" fill="#EAF8F2" stroke="black" stroke-width="3" stroke-linecap="round" stroke-linejoin="round"/>
<path d="M80.2231 168C81.1709 168.106 81.4671 168.408 81.857 169.089C82.4134 169.235 82.6309 169.384 82.6739 169.906C82.5649 170.523 82.3742 170.685 81.857 170.723V174.263H80.4954V173.174H79.6785V174.263H78.3169V173.174H77.5V169.906H78.3169V169.089C78.997 168.122 79.4303 168.017 80.2231 168Z" fill="#E8FFF5"/>
<path d="M81.857 169.089C81.4671 168.408 81.1709 168.106 80.2231 168C79.4303 168.017 78.997 168.122 78.3169 169.089V169.906M81.857 169.089C82.4134 169.235 82.6309 169.384 82.6739 169.906C82.5649 170.523 82.3742 170.685 81.857 170.723M81.857 169.089H79.6785C79.3053 169.32 79.0805 169.478 79.1339 169.906C79.131 170.382 79.2263 170.579 79.6785 170.723H81.857M81.857 170.723V174.263H80.4954V173.174M80.4954 173.174C80.7399 173.131 80.8559 173.065 81.04 172.902M80.4954 173.174H79.6785V174.263H78.3169V173.174M78.3169 173.174H77.5V169.906H78.3169M78.3169 173.174V169.906" stroke="#DDFFF0" stroke-width="0.544622" stroke-linecap="round" stroke-linejoin="round"/>
<path d="M105.5 151C97.1023 154.891 92.5919 157.312 86.5 164" stroke="#DDFFF0" stroke-width="8" stroke-linecap="round" stroke-linejoin="round"/>
<defs>
<linearGradient id="paint0_linear_1_45" x1="149" y1="80.5" x2="120.5" y2="142" gradientUnits="userSpaceOnUse">
<stop stop-color="#232830"/>
<stop offset="1" stop-color="#716E96"/>
</linearGradient>
<linearGradient id="paint1_linear_1_45" x1="206" y1="71" x2="85" y2="195" gradientUnits="userSpaceOnUse">
<stop stop-color="#802392"/>
<stop offset="1" stop-color="#995FA3"/>
</linearGradient>
</defs>
</svg>
