<svg width="549" height="171" viewBox="0 0 549 171" fill="none" xmlns="http://www.w3.org/2000/svg">
<path fill-rule="evenodd" clip-rule="evenodd" d="M259.834 108.896L216.35 35.8183L44.2607 4.42926L92.3473 76.3593L259.834 108.896ZM75.7482 27.4302L81.6772 22.9474L203.091 46.0066L209.022 52.5691L75.7482 27.4302ZM92.9985 42.0478L87.0694 46.5307L220.344 71.6696L214.412 65.1071L92.9985 42.0478ZM99.2963 66.7174L105.225 62.2346L226.639 85.2938L232.571 91.8563L99.2963 66.7174Z" fill="url(#paint0_linear_1_2)"/>
<path d="M81.6772 22.9474L75.7482 27.4302L209.022 52.5691L203.091 46.0066L81.6772 22.9474Z" stroke="black" stroke-linejoin="round"/>
<path d="M92.9985 42.0478L87.0694 46.5307L220.344 71.6696L214.412 65.1071L92.9985 42.0478Z" stroke="black" stroke-linejoin="round"/>
<path d="M105.225 62.2346L99.2963 66.7174L232.571 91.8563L226.639 85.2938L105.225 62.2346Z" stroke="black" stroke-linejoin="round"/>
<path d="M216.35 35.8183L259.834 108.896L92.3473 76.3593L44.2607 4.42926L216.35 35.8183Z" stroke="black" stroke-width="4" stroke-linejoin="round"/>
<path d="M259.834 108.896L199.447 156.874L21.9901 123.565L90.8518 76.2434L259.834 108.896Z" fill="url(#paint1_linear_1_2)" stroke="black" stroke-width="4" stroke-linejoin="round"/>
<path d="M17.1246 115.164L21.9901 123.565L91.9261 75.3237L44.2607 4.42926L35.3612 9.25614L69.6479 71.5913L17.1246 115.164Z" fill="#072417" stroke="black" stroke-width="4" stroke-linecap="round" stroke-linejoin="round"/>
<path d="M192.297 119.711C196.78 113.799 194.012 104.23 187.446 85.2329C185.323 86.9444 184.184 87.9462 179.587 87.6329C175.579 84.8978 172.669 84.7822 167.428 84.6847C165.15 85.0641 164.119 86.2798 163.304 92.6055C162.43 94.351 161.658 95.1234 157.32 94.4329C151.931 89.137 149.528 88.6734 145.529 89.0058C142.315 89.1781 140.6 92.2496 137.621 100.449C136.159 101.886 135.132 102.157 132.999 101.86C127.879 95.6798 125.565 95.1605 121.52 94.6678C119.199 94.4651 76.8848 119.312 67.5526 131.701L126.356 142.275C150.551 134.18 174.38 125.815 192.297 119.711Z" fill="#A5F8D3" stroke="black" stroke-width="5" stroke-linecap="round" stroke-linejoin="round"/>
<path d="M187.867 86.2685C189.99 65.5018 191.815 56.9349 197.817 54.9436C207.896 49.637 211.571 52.6872 212.224 76.1199C212.138 92.1146 211.694 100.957 218.911 119.266C218.658 124.671 220.209 127.332 214.761 133.989C206.217 143.247 201.877 139.646 194.867 118.907C194.595 106.621 192.683 99.4038 187.867 86.2685Z" fill="#C4F5E0" stroke="black" stroke-width="5" stroke-linecap="round" stroke-linejoin="round"/>
<path d="M249.724 84.0408C242.431 56.1632 229.043 54.1044 206.485 53.1078C209.384 56.9319 210.93 59.3826 211.617 64.5384C227.86 67.7149 234.177 71.5642 238.027 86.1434C239.757 101.013 238.694 108.966 218.872 119.764C219.595 128.12 217.838 131.715 212.037 136.787C252.31 119.648 252.738 106.36 249.724 84.0408Z" fill="#EAF8F2" stroke="black" stroke-width="3" stroke-linecap="round" stroke-linejoin="round"/>
<path d="M93.0812 121.551C94.018 121.73 94.29 122.054 94.6261 122.763C95.1696 122.951 95.3749 123.116 95.3775 123.641C95.2211 124.247 95.0184 124.394 94.4999 124.392L94.2264 127.922L92.8689 127.817L92.953 126.731L92.1385 126.667L92.0544 127.753L90.6969 127.648L90.781 126.562L89.9666 126.499L90.219 123.241L91.0335 123.304L91.0966 122.49C91.8494 121.578 92.2895 121.507 93.0812 121.551Z" fill="#E8FFF5"/>
<path d="M94.6261 122.763C94.29 122.054 94.018 121.73 93.0812 121.551C92.2895 121.507 91.8494 121.578 91.0966 122.49L91.0335 123.304M94.6261 122.763C95.1696 122.951 95.3749 123.116 95.3775 123.641C95.2211 124.247 95.0184 124.394 94.4999 124.392M94.6261 122.763L92.4541 122.595C92.0642 122.796 91.8278 122.936 91.848 123.367C91.8084 123.842 91.8882 124.045 92.3279 124.224L94.4999 124.392M94.4999 124.392L94.2264 127.922L92.8689 127.817L92.953 126.731M92.953 126.731C93.2001 126.707 93.3208 126.65 93.5171 126.501M92.953 126.731L92.1385 126.667L92.0544 127.753L90.6969 127.648L90.781 126.562M90.781 126.562L89.9666 126.499L90.219 123.241L91.0335 123.304M90.781 126.562L91.0335 123.304" stroke="#DDFFF0" stroke-width="0.544622" stroke-linecap="round" stroke-linejoin="round"/>
<path d="M119.596 106.555C110.923 109.785 106.239 111.851 99.6484 118.048" stroke="#DDFFF0" stroke-width="8" stroke-linecap="round" stroke-linejoin="round"/>
<mask id="path-14-outside-1_1_2" maskUnits="userSpaceOnUse" x="299.656" y="22.9405" width="133.805" height="45.5578" fill="black">
<rect fill="white" x="299.656" y="22.9405" width="133.805" height="45.5578"/>
<path d="M337.782 27.0093L327.234 64.1956L313.901 64.6904L302.547 26.7055L315.297 25.7697L320.027 47.8865L325.446 25.9655L337.782 27.0093ZM364.116 26.443C363.976 28.1236 363.846 29.7864 363.725 31.4315C363.603 33.0766 363.455 34.7391 363.279 36.419L351.883 36.79L351.549 40.168L359.551 40.3224L358.799 48.6346L350.739 48.7477L350.395 52.6627L357.054 52.7912L361.78 52.8824C361.634 54.8493 361.48 56.8072 361.317 58.7559C361.172 60.6871 361.036 62.6273 360.909 64.5768L337.754 64.6672L339.36 25.9654L364.116 26.443ZM401.569 27.3806L398.933 63.7525L384.838 64.7699L377.696 45.1314L376.131 64.9779L364.049 64.7448L365.75 26.6895L379.188 26.3041L388.105 45.8157L388.887 27.5656L401.569 27.3806ZM432.149 28.0781L431.661 39.4575L423.653 39.6253L421.122 65.0402L409.779 65.4123L410.324 39.959L402.314 40.2343L402.881 27.5671L432.149 28.0781Z"/>
</mask>
<path d="M337.782 27.0093L327.234 64.1956L313.901 64.6904L302.547 26.7055L315.297 25.7697L320.027 47.8865L325.446 25.9655L337.782 27.0093ZM364.116 26.443C363.976 28.1236 363.846 29.7864 363.725 31.4315C363.603 33.0766 363.455 34.7391 363.279 36.419L351.883 36.79L351.549 40.168L359.551 40.3224L358.799 48.6346L350.739 48.7477L350.395 52.6627L357.054 52.7912L361.78 52.8824C361.634 54.8493 361.48 56.8072 361.317 58.7559C361.172 60.6871 361.036 62.6273 360.909 64.5768L337.754 64.6672L339.36 25.9654L364.116 26.443ZM401.569 27.3806L398.933 63.7525L384.838 64.7699L377.696 45.1314L376.131 64.9779L364.049 64.7448L365.75 26.6895L379.188 26.3041L388.105 45.8157L388.887 27.5656L401.569 27.3806ZM432.149 28.0781L431.661 39.4575L423.653 39.6253L421.122 65.0402L409.779 65.4123L410.324 39.959L402.314 40.2343L402.881 27.5671L432.149 28.0781Z" fill="black"/>
<path d="M337.782 27.0093L338.744 27.2822L339.075 26.1152L337.866 26.0129L337.782 27.0093ZM327.234 64.1956L327.271 65.1949L327.997 65.1679L328.196 64.4685L327.234 64.1956ZM313.901 64.6904L312.943 64.9768L313.165 65.7185L313.938 65.6897L313.901 64.6904ZM302.547 26.7055L302.474 25.7082L301.232 25.7993L301.589 26.9919L302.547 26.7055ZM315.297 25.7697L316.275 25.5605L316.093 24.7086L315.224 24.7724L315.297 25.7697ZM320.027 47.8865L319.05 48.0957L320.998 48.1265L320.027 47.8865ZM325.446 25.9655L325.531 24.9691L324.68 24.8971L324.476 25.7255L325.446 25.9655ZM336.82 26.7364L326.272 63.9227L328.196 64.4685L338.744 27.2822L336.82 26.7364ZM327.197 63.1963L313.864 63.6911L313.938 65.6897L327.271 65.1949L327.197 63.1963ZM314.859 64.404L303.505 26.4191L301.589 26.9919L312.943 64.9768L314.859 64.404ZM302.62 27.7029L315.37 26.767L315.224 24.7724L302.474 25.7082L302.62 27.7029ZM314.319 25.9788L319.05 48.0957L321.005 47.6774L316.275 25.5605L314.319 25.9788ZM320.998 48.1265L326.417 26.2055L324.476 25.7255L319.057 47.6466L320.998 48.1265ZM325.362 26.962L337.698 28.0058L337.866 26.0129L325.531 24.9691L325.362 26.962ZM364.116 26.443L365.113 26.526L365.201 25.4638L364.136 25.4432L364.116 26.443ZM363.279 36.419L363.312 37.4185L364.183 37.3901L364.274 36.523L363.279 36.419ZM351.883 36.79L351.851 35.7906L350.974 35.8191L350.888 36.6917L351.883 36.79ZM351.549 40.168L350.554 40.0697L350.448 41.1469L351.53 41.1678L351.549 40.168ZM359.551 40.3224L360.547 40.4124L360.643 39.3433L359.57 39.3226L359.551 40.3224ZM358.799 48.6346L358.814 49.6345L359.714 49.6219L359.795 48.7247L358.799 48.6346ZM350.739 48.7477L350.725 47.7478L349.822 47.7605L349.743 48.6602L350.739 48.7477ZM350.395 52.6627L349.399 52.5751L349.305 53.6419L350.376 53.6625L350.395 52.6627ZM361.78 52.8824L362.777 52.9561L362.855 51.9029L361.799 51.8826L361.78 52.8824ZM361.317 58.7559L360.321 58.6726L360.32 58.6812L361.317 58.7559ZM360.909 64.5768L360.913 65.5767L361.846 65.5731L361.907 64.6418L360.909 64.5768ZM337.754 64.6672L336.755 64.6257L336.711 65.6713L337.758 65.6672L337.754 64.6672ZM339.36 25.9654L339.379 24.9656L338.402 24.9467L338.361 25.9239L339.36 25.9654ZM363.12 26.3601C362.98 28.0437 362.849 29.7097 362.727 31.358L364.722 31.5051C364.843 29.8632 364.973 28.2035 365.113 26.526L363.12 26.3601ZM362.727 31.358C362.607 32.9927 362.459 34.645 362.285 36.315L364.274 36.523C364.45 34.8332 364.6 33.1606 364.722 31.5051L362.727 31.358ZM363.247 35.4195L351.851 35.7906L351.916 37.7895L363.312 37.4185L363.247 35.4195ZM350.888 36.6917L350.554 40.0697L352.545 40.2663L352.878 36.8884L350.888 36.6917ZM351.53 41.1678L359.531 41.3222L359.57 39.3226L351.569 39.1682L351.53 41.1678ZM358.555 40.2324L357.804 48.5446L359.795 48.7247L360.547 40.4124L358.555 40.2324ZM358.785 47.6347L350.725 47.7478L350.753 49.7476L358.814 49.6345L358.785 47.6347ZM349.743 48.6602L349.399 52.5751L351.391 52.7503L351.735 48.8353L349.743 48.6602ZM350.376 53.6625L357.035 53.791L357.073 51.7914L350.414 51.6629L350.376 53.6625ZM357.035 53.791L361.76 53.8822L361.799 51.8826L357.073 51.7914L357.035 53.791ZM360.782 52.8087C360.637 54.7724 360.483 56.7271 360.321 58.6726L362.314 58.8392C362.477 56.8873 362.631 54.9262 362.777 52.9561L360.782 52.8087ZM360.32 58.6812C360.175 60.6156 360.039 62.5591 359.911 64.5117L361.907 64.6418C362.034 62.6956 362.17 60.7585 362.314 58.8306L360.32 58.6812ZM360.905 63.5768L337.75 63.6672L337.758 65.6672L360.913 65.5767L360.905 63.5768ZM338.753 64.7086L340.359 26.0068L338.361 25.9239L336.755 64.6257L338.753 64.7086ZM339.341 26.9652L364.097 27.4429L364.136 25.4432L339.379 24.9656L339.341 26.9652ZM401.569 27.3806L402.566 27.4528L402.645 26.3648L401.554 26.3807L401.569 27.3806ZM398.933 63.7525L399.005 64.7499L399.868 64.6876L399.93 63.8248L398.933 63.7525ZM384.838 64.7699L383.898 65.1116L384.157 65.8217L384.91 65.7673L384.838 64.7699ZM377.696 45.1314L378.636 44.7896L376.699 45.0528L377.696 45.1314ZM376.131 64.9779L376.112 65.9777L377.054 65.9959L377.128 65.0565L376.131 64.9779ZM364.049 64.7448L363.05 64.7001L363.004 65.7248L364.029 65.7446L364.049 64.7448ZM365.75 26.6895L365.721 25.6899L364.792 25.7165L364.751 26.6448L365.75 26.6895ZM379.188 26.3041L380.097 25.8884L379.822 25.2855L379.159 25.3045L379.188 26.3041ZM388.105 45.8157L387.195 46.2313L389.104 45.8585L388.105 45.8157ZM388.887 27.5656L388.872 26.5658L387.928 26.5795L387.888 27.5228L388.887 27.5656ZM400.571 27.3083L397.935 63.6802L399.93 63.8248L402.566 27.4528L400.571 27.3083ZM398.861 62.7551L384.766 63.7725L384.91 65.7673L399.005 64.7499L398.861 62.7551ZM385.778 64.4281L378.636 44.7896L376.756 45.4731L383.898 65.1116L385.778 64.4281ZM376.699 45.0528L375.135 64.8993L377.128 65.0565L378.693 45.21L376.699 45.0528ZM376.151 63.9781L364.068 63.745L364.029 65.7446L376.112 65.9777L376.151 63.9781ZM365.048 64.7894L366.749 26.7341L364.751 26.6448L363.05 64.7001L365.048 64.7894ZM365.779 27.689L379.216 27.3037L379.159 25.3045L365.721 25.6899L365.779 27.689ZM378.278 26.7198L387.195 46.2313L389.014 45.4L380.097 25.8884L378.278 26.7198ZM389.104 45.8585L389.886 27.6084L387.888 27.5228L387.106 45.7729L389.104 45.8585ZM388.901 28.5655L401.583 28.3805L401.554 26.3807L388.872 26.5658L388.901 28.5655ZM432.149 28.0781L433.148 28.1209L433.192 27.0961L432.167 27.0782L432.149 28.0781ZM431.661 39.4575L431.682 40.4573L432.62 40.4376L432.66 39.5003L431.661 39.4575ZM423.653 39.6253L423.632 38.6255L422.746 38.6441L422.658 39.5262L423.653 39.6253ZM421.122 65.0402L421.154 66.0396L422.03 66.0109L422.117 65.1393L421.122 65.0402ZM409.779 65.4123L408.779 65.3909L408.757 66.4463L409.812 66.4117L409.779 65.4123ZM410.324 39.959L411.324 39.9804L411.346 38.9233L410.29 38.9596L410.324 39.959ZM402.314 40.2343L401.315 40.1896L401.267 41.2708L402.349 41.2337L402.314 40.2343ZM402.881 27.5671L402.899 26.5672L401.926 26.5502L401.882 27.5224L402.881 27.5671ZM431.15 28.0352L430.662 39.4146L432.66 39.5003L433.148 28.1209L431.15 28.0352ZM431.64 38.4577L423.632 38.6255L423.674 40.6251L431.682 40.4573L431.64 38.4577ZM422.658 39.5262L420.126 64.941L422.117 65.1393L424.648 39.7244L422.658 39.5262ZM421.089 64.0407L409.746 64.4128L409.812 66.4117L421.154 66.0396L421.089 64.0407ZM410.779 65.4337L411.324 39.9804L409.324 39.9376L408.779 65.3909L410.779 65.4337ZM410.29 38.9596L402.28 39.2349L402.349 41.2337L410.358 40.9585L410.29 38.9596ZM403.313 40.279L403.88 27.6118L401.882 27.5224L401.315 40.1896L403.313 40.279ZM402.864 28.5669L432.132 29.0779L432.167 27.0782L402.899 26.5672L402.864 28.5669Z" fill="white" mask="url(#path-14-outside-1_1_2)"/>
<mask id="path-16-outside-2_1_2" maskUnits="userSpaceOnUse" x="250.701" y="66.8969" width="278.111" height="60.5184" fill="black">
<rect fill="white" x="250.701" y="66.8969" width="278.111" height="60.5184"/>
<path d="M289.624 71.5352C289.482 73.8304 289.351 76.1012 289.234 78.3475C289.116 80.5938 288.961 82.8646 288.77 85.1599L273.244 85.9945L272.887 90.6094L283.8 90.5891L283.015 101.943L272.03 102.33L271.674 107.677L280.756 107.66L287.201 107.648C287.059 110.334 286.906 113.008 286.74 115.669C286.598 118.306 286.469 120.955 286.352 123.617L254.786 124.408L255.859 71.5982L289.624 71.5352ZM325.586 71.4681C325.443 73.7633 325.313 76.0341 325.195 78.2804C325.078 80.5267 324.923 82.7975 324.732 85.0928L309.206 85.9274L309.215 90.5417L322.691 90.5165L321.98 101.87L309.163 102.261L309.277 123.94L290.748 124.341L291.821 71.5311L325.586 71.4681ZM362.133 71.4C361.991 73.6952 361.861 75.9659 361.743 78.2122C361.625 80.4585 361.471 82.7293 361.28 85.0246L345.754 85.8592L345.396 90.4742L356.31 90.4538L355.525 101.808L344.539 102.195L344.183 107.542L353.265 107.525L359.71 107.513C359.569 110.199 359.415 112.872 359.249 115.534C359.108 118.171 358.978 120.82 358.861 123.481L327.295 124.273L328.369 71.4629L362.133 71.4ZM409.687 120.97L391.527 123.347L389.314 115.075L380.965 115.09L379.149 123.37L360.469 121.574L374.953 72.7677L395.313 71.7043L409.687 120.97ZM387.975 103.871L385.168 91.1324L382.482 103.882L387.975 103.871ZM444.751 71.6853L444.414 87.2133L433.502 87.6731L430.783 122.395L415.331 123.23L415.339 88.5127L404.427 89.119L404.834 71.833L444.751 71.6853ZM481.445 71.1774C481.302 73.4726 481.172 75.7434 481.055 77.9897C480.937 80.236 480.782 82.5068 480.591 84.8021L465.065 85.6367L464.708 90.2516L475.621 90.2313L474.836 101.585L463.851 101.972L463.494 107.319L472.577 107.302L479.022 107.29C478.88 109.976 478.727 112.65 478.561 115.311C478.419 117.948 478.29 120.597 478.173 123.259L446.607 124.05L447.68 71.2404L481.445 71.1774ZM525.679 88.5998C525.682 90.5041 525.515 92.2378 525.176 93.801C524.861 95.3396 524.351 96.7566 523.646 98.0519C522.94 99.3471 522.027 100.545 520.906 101.646C519.785 102.747 518.432 103.799 516.847 104.803L525.592 120.314L509.118 123.567L503.449 107.977L498.909 108.132L498.278 123.368L482.531 123.397C482.643 117.831 482.742 112.288 482.829 106.771C482.941 101.253 483.065 95.7106 483.201 90.1439C483.245 87.3362 483.288 84.5529 483.332 81.794C483.376 79.0352 483.468 76.2518 483.61 73.4439C485.317 72.8059 487.001 72.2779 488.66 71.8598C490.32 71.4416 491.979 71.1212 493.639 70.8983C495.323 70.651 497.02 70.4892 498.728 70.4128C500.462 70.3119 502.232 70.2597 504.038 70.2564C506.821 70.2512 509.508 70.6368 512.097 71.4132C514.711 72.1652 517.02 73.3083 519.025 74.8427C521.03 76.377 522.632 78.2906 523.833 80.5832C525.058 82.8759 525.673 85.5481 525.679 88.5998ZM509.275 89.8023C509.273 88.7769 509.125 87.8372 508.83 86.9833C508.56 86.1293 508.144 85.3977 507.581 84.7884C507.043 84.1546 506.358 83.6676 505.527 83.3273C504.721 82.9626 503.769 82.7813 502.67 82.7834C502.182 82.7843 501.706 82.8218 501.242 82.8959C500.778 82.9456 500.327 83.0319 499.887 83.1548L499.327 96.7789L500.206 96.7772C501.256 96.7753 502.317 96.639 503.391 96.3685C504.489 96.0979 505.465 95.681 506.318 95.1179C507.196 94.5547 507.903 93.8332 508.438 92.9533C508.998 92.0733 509.277 91.023 509.275 89.8023Z"/>
</mask>
<path d="M289.624 71.5352C289.482 73.8304 289.351 76.1012 289.234 78.3475C289.116 80.5938 288.961 82.8646 288.77 85.1599L273.244 85.9945L272.887 90.6094L283.8 90.5891L283.015 101.943L272.03 102.33L271.674 107.677L280.756 107.66L287.201 107.648C287.059 110.334 286.906 113.008 286.74 115.669C286.598 118.306 286.469 120.955 286.352 123.617L254.786 124.408L255.859 71.5982L289.624 71.5352ZM325.586 71.4681C325.443 73.7633 325.313 76.0341 325.195 78.2804C325.078 80.5267 324.923 82.7975 324.732 85.0928L309.206 85.9274L309.215 90.5417L322.691 90.5165L321.98 101.87L309.163 102.261L309.277 123.94L290.748 124.341L291.821 71.5311L325.586 71.4681ZM362.133 71.4C361.991 73.6952 361.861 75.9659 361.743 78.2122C361.625 80.4585 361.471 82.7293 361.28 85.0246L345.754 85.8592L345.396 90.4742L356.31 90.4538L355.525 101.808L344.539 102.195L344.183 107.542L353.265 107.525L359.71 107.513C359.569 110.199 359.415 112.872 359.249 115.534C359.108 118.171 358.978 120.82 358.861 123.481L327.295 124.273L328.369 71.4629L362.133 71.4ZM409.687 120.97L391.527 123.347L389.314 115.075L380.965 115.09L379.149 123.37L360.469 121.574L374.953 72.7677L395.313 71.7043L409.687 120.97ZM387.975 103.871L385.168 91.1324L382.482 103.882L387.975 103.871ZM444.751 71.6853L444.414 87.2133L433.502 87.6731L430.783 122.395L415.331 123.23L415.339 88.5127L404.427 89.119L404.834 71.833L444.751 71.6853ZM481.445 71.1774C481.302 73.4726 481.172 75.7434 481.055 77.9897C480.937 80.236 480.782 82.5068 480.591 84.8021L465.065 85.6367L464.708 90.2516L475.621 90.2313L474.836 101.585L463.851 101.972L463.494 107.319L472.577 107.302L479.022 107.29C478.88 109.976 478.727 112.65 478.561 115.311C478.419 117.948 478.29 120.597 478.173 123.259L446.607 124.05L447.68 71.2404L481.445 71.1774ZM525.679 88.5998C525.682 90.5041 525.515 92.2378 525.176 93.801C524.861 95.3396 524.351 96.7566 523.646 98.0519C522.94 99.3471 522.027 100.545 520.906 101.646C519.785 102.747 518.432 103.799 516.847 104.803L525.592 120.314L509.118 123.567L503.449 107.977L498.909 108.132L498.278 123.368L482.531 123.397C482.643 117.831 482.742 112.288 482.829 106.771C482.941 101.253 483.065 95.7106 483.201 90.1439C483.245 87.3362 483.288 84.5529 483.332 81.794C483.376 79.0352 483.468 76.2518 483.61 73.4439C485.317 72.8059 487.001 72.2779 488.66 71.8598C490.32 71.4416 491.979 71.1212 493.639 70.8983C495.323 70.651 497.02 70.4892 498.728 70.4128C500.462 70.3119 502.232 70.2597 504.038 70.2564C506.821 70.2512 509.508 70.6368 512.097 71.4132C514.711 72.1652 517.02 73.3083 519.025 74.8427C521.03 76.377 522.632 78.2906 523.833 80.5832C525.058 82.8759 525.673 85.5481 525.679 88.5998ZM509.275 89.8023C509.273 88.7769 509.125 87.8372 508.83 86.9833C508.56 86.1293 508.144 85.3977 507.581 84.7884C507.043 84.1546 506.358 83.6676 505.527 83.3273C504.721 82.9626 503.769 82.7813 502.67 82.7834C502.182 82.7843 501.706 82.8218 501.242 82.8959C500.778 82.9456 500.327 83.0319 499.887 83.1548L499.327 96.7789L500.206 96.7772C501.256 96.7753 502.317 96.639 503.391 96.3685C504.489 96.0979 505.465 95.681 506.318 95.1179C507.196 94.5547 507.903 93.8332 508.438 92.9533C508.998 92.0733 509.277 91.023 509.275 89.8023Z" fill="white"/>
<path d="M289.624 71.5352L292.618 71.7207C292.669 70.8935 292.376 70.0819 291.808 69.4785C291.24 68.8751 290.447 68.5337 289.618 68.5352L289.624 71.5352ZM288.77 85.1599L288.931 88.1555C290.428 88.0751 291.636 86.9024 291.76 85.4087L288.77 85.1599ZM273.244 85.9945L273.083 82.9988C271.58 83.0796 270.37 84.2619 270.253 85.7627L273.244 85.9945ZM272.887 90.6094L269.896 90.3777C269.831 91.2121 270.118 92.0355 270.687 92.6492C271.256 93.2629 272.056 93.611 272.892 93.6094L272.887 90.6094ZM283.8 90.5891L286.793 90.7959C286.85 89.9653 286.56 89.1482 285.991 88.5401C285.423 87.932 284.627 87.5875 283.794 87.5891L283.8 90.5891ZM283.015 101.943L283.121 104.941C284.656 104.887 285.902 103.682 286.008 102.15L283.015 101.943ZM272.03 102.33L271.924 99.3317C270.386 99.3858 269.139 100.595 269.036 102.13L272.03 102.33ZM271.674 107.677L268.68 107.478C268.625 108.307 268.916 109.122 269.485 109.729C270.053 110.335 270.848 110.679 271.679 110.677L271.674 107.677ZM287.201 107.648L290.197 107.806C290.24 106.983 289.943 106.179 289.375 105.581C288.808 104.984 288.019 104.647 287.195 104.648L287.201 107.648ZM286.74 115.669L283.746 115.482C283.745 115.491 283.745 115.5 283.744 115.508L286.74 115.669ZM286.352 123.617L286.427 126.616C288.003 126.576 289.28 125.323 289.349 123.748L286.352 123.617ZM254.786 124.408L251.786 124.347C251.77 125.166 252.089 125.956 252.669 126.534C253.25 127.112 254.042 127.427 254.861 127.407L254.786 124.408ZM255.859 71.5982L255.854 68.5982C254.223 68.6012 252.893 69.9066 252.86 71.5372L255.859 71.5982ZM286.629 71.3497C286.487 73.6541 286.356 75.9343 286.238 78.1903L292.229 78.5047C292.347 76.268 292.476 74.0067 292.618 71.7207L286.629 71.3497ZM286.238 78.1903C286.121 80.4053 285.969 82.6455 285.781 84.911L291.76 85.4087C291.953 83.0836 292.11 80.7823 292.229 78.5047L286.238 78.1903ZM288.609 82.1642L273.083 82.9988L273.405 88.9902L288.931 88.1555L288.609 82.1642ZM270.253 85.7627L269.896 90.3777L275.878 90.8412L276.235 86.2263L270.253 85.7627ZM272.892 93.6094L283.805 93.5891L283.794 87.5891L272.881 87.6094L272.892 93.6094ZM280.807 90.3823L280.023 101.736L286.008 102.15L286.793 90.7959L280.807 90.3823ZM282.91 98.9449L271.924 99.3317L272.135 105.328L283.121 104.941L282.91 98.9449ZM269.036 102.13L268.68 107.478L274.667 107.877L275.023 102.529L269.036 102.13ZM271.679 110.677L280.761 110.66L280.75 104.66L271.668 104.677L271.679 110.677ZM280.761 110.66L287.206 110.648L287.195 104.648L280.75 104.66L280.761 110.66ZM284.205 107.49C284.064 110.167 283.911 112.831 283.746 115.482L289.734 115.856C289.9 113.185 290.055 110.501 290.197 107.806L284.205 107.49ZM283.744 115.508C283.602 118.155 283.472 120.814 283.355 123.485L289.349 123.748C289.466 121.097 289.594 118.457 289.735 115.83L283.744 115.508ZM286.277 120.618L254.711 121.409L254.861 127.407L286.427 126.616L286.277 120.618ZM257.785 124.469L258.859 71.6591L252.86 71.5372L251.786 124.347L257.785 124.469ZM255.865 74.5982L289.629 74.5352L289.618 68.5352L255.854 68.5982L255.865 74.5982ZM325.586 71.4681L328.58 71.6536C328.631 70.8264 328.338 70.0148 327.77 69.4114C327.201 68.808 326.409 68.4666 325.58 68.4681L325.586 71.4681ZM324.732 85.0928L324.893 88.0885C326.39 88.008 327.597 86.8353 327.722 85.3416L324.732 85.0928ZM309.206 85.9274L309.045 82.9317C307.451 83.0174 306.203 84.3366 306.206 85.933L309.206 85.9274ZM309.215 90.5417L306.215 90.5473C306.218 92.2041 307.564 93.5448 309.22 93.5417L309.215 90.5417ZM322.691 90.5165L325.686 90.7041C325.737 89.8765 325.444 89.0644 324.876 88.4606C324.308 87.8567 323.515 87.515 322.686 87.5165L322.691 90.5165ZM321.98 101.87L322.071 104.869C323.62 104.822 324.877 103.604 324.974 102.058L321.98 101.87ZM309.163 102.261L309.072 99.2619C307.446 99.3114 306.155 100.649 306.164 102.276L309.163 102.261ZM309.277 123.94L309.342 126.939C310.979 126.904 312.286 125.562 312.277 123.924L309.277 123.94ZM290.748 124.341L287.748 124.28C287.732 125.097 288.049 125.886 288.628 126.464C289.206 127.041 289.995 127.358 290.812 127.34L290.748 124.341ZM291.821 71.5311L291.815 68.5311C290.184 68.5342 288.855 69.8396 288.822 71.4701L291.821 71.5311ZM322.591 71.2826C322.449 73.587 322.318 75.8672 322.2 78.1232L328.191 78.4376C328.309 76.2009 328.438 73.9396 328.58 71.6536L322.591 71.2826ZM322.2 78.1232C322.083 80.3382 321.931 82.5785 321.742 84.844L327.722 85.3416C327.915 83.0166 328.072 80.7152 328.191 78.4376L322.2 78.1232ZM324.571 82.0971L309.045 82.9317L309.367 88.9231L324.893 88.0885L324.571 82.0971ZM306.206 85.933L306.215 90.5473L312.215 90.5361L312.206 85.9218L306.206 85.933ZM309.22 93.5417L322.697 93.5165L322.686 87.5165L309.209 87.5417L309.22 93.5417ZM319.697 90.329L318.986 101.683L324.974 102.058L325.686 90.7041L319.697 90.329ZM321.889 98.8718L309.072 99.2619L309.255 105.259L322.071 104.869L321.889 98.8718ZM306.164 102.276L306.277 123.956L312.277 123.924L312.163 102.245L306.164 102.276ZM309.212 120.941L290.683 121.342L290.812 127.34L309.342 126.939L309.212 120.941ZM293.747 124.402L294.82 71.5921L288.822 71.4701L287.748 124.28L293.747 124.402ZM291.827 74.5311L325.591 74.4681L325.58 68.4681L291.815 68.5311L291.827 74.5311ZM362.133 71.4L365.128 71.5855C365.179 70.7582 364.886 69.9466 364.317 69.3432C363.749 68.7398 362.957 68.3984 362.128 68.4L362.133 71.4ZM361.28 85.0246L361.441 88.0203C362.938 87.9398 364.145 86.7671 364.27 85.2734L361.28 85.0246ZM345.754 85.8592L345.593 82.8636C344.09 82.9444 342.879 84.1266 342.763 85.6275L345.754 85.8592ZM345.396 90.4742L342.405 90.2424C342.341 91.0768 342.628 91.9003 343.197 92.514C343.766 93.1276 344.565 93.4757 345.402 93.4742L345.396 90.4742ZM356.31 90.4538L359.302 90.6606C359.36 89.8301 359.069 89.013 358.501 88.4049C357.932 87.7968 357.136 87.4523 356.304 87.4538L356.31 90.4538ZM355.525 101.808L355.631 104.806C357.166 104.752 358.412 103.547 358.518 102.015L355.525 101.808ZM344.539 102.195L344.434 99.1964C342.896 99.2505 341.648 100.46 341.546 101.995L344.539 102.195ZM344.183 107.542L341.19 107.342C341.135 108.172 341.426 108.987 341.994 109.594C342.563 110.2 343.358 110.543 344.189 110.542L344.183 107.542ZM359.71 107.513L362.706 107.671C362.75 106.848 362.453 106.043 361.885 105.446C361.317 104.849 360.529 104.511 359.705 104.513L359.71 107.513ZM359.249 115.534L356.255 115.347C356.255 115.356 356.254 115.364 356.254 115.373L359.249 115.534ZM358.861 123.481L358.937 126.48C360.513 126.441 361.789 125.188 361.858 123.613L358.861 123.481ZM327.295 124.273L324.296 124.212C324.279 125.031 324.598 125.821 325.179 126.399C325.76 126.977 326.552 127.292 327.371 127.272L327.295 124.273ZM328.369 71.4629L328.363 68.4629C326.732 68.466 325.403 69.7714 325.369 71.402L328.369 71.4629ZM359.139 71.2144C358.996 73.5189 358.866 75.799 358.747 78.055L364.739 78.3694C364.856 76.1328 364.986 73.8714 365.128 71.5855L359.139 71.2144ZM358.747 78.055C358.631 80.27 358.479 82.5103 358.29 84.7758L364.27 85.2734C364.463 82.9484 364.62 80.647 364.739 78.3694L358.747 78.055ZM361.119 82.0289L345.593 82.8636L345.915 88.8549L361.441 88.0203L361.119 82.0289ZM342.763 85.6275L342.405 90.2424L348.387 90.706L348.745 86.091L342.763 85.6275ZM345.402 93.4742L356.315 93.4538L356.304 87.4538L345.391 87.4742L345.402 93.4742ZM353.317 90.247L352.532 101.601L358.518 102.015L359.302 90.6606L353.317 90.247ZM355.42 98.8097L344.434 99.1964L344.645 105.193L355.631 104.806L355.42 98.8097ZM341.546 101.995L341.19 107.342L347.177 107.741L347.533 102.394L341.546 101.995ZM344.189 110.542L353.271 110.525L353.26 104.525L344.178 104.542L344.189 110.542ZM353.271 110.525L359.716 110.513L359.705 104.513L353.26 104.525L353.271 110.525ZM356.715 107.355C356.574 110.031 356.421 112.695 356.255 115.347L362.244 115.721C362.41 113.049 362.564 110.366 362.706 107.671L356.715 107.355ZM356.254 115.373C356.112 118.02 355.982 120.679 355.864 123.349L361.858 123.613C361.975 120.961 362.104 118.322 362.245 115.695L356.254 115.373ZM358.786 120.482L327.22 121.274L327.371 127.272L358.937 126.48L358.786 120.482ZM330.295 124.334L331.368 71.5239L325.369 71.402L324.296 124.212L330.295 124.334ZM328.374 74.4629L362.139 74.4L362.128 68.4L328.363 68.4629L328.374 74.4629ZM409.687 120.97L410.076 123.944C410.945 123.83 411.72 123.343 412.199 122.61C412.678 121.876 412.812 120.97 412.567 120.129L409.687 120.97ZM391.527 123.347L388.629 124.122C389.018 125.576 390.424 126.517 391.917 126.322L391.527 123.347ZM389.314 115.075L392.213 114.3C391.861 112.986 390.669 112.072 389.309 112.075L389.314 115.075ZM380.965 115.09L380.959 112.091C379.552 112.093 378.336 113.073 378.035 114.448L380.965 115.09ZM379.149 123.37L378.862 126.356C380.373 126.502 381.755 125.496 382.08 124.013L379.149 123.37ZM360.469 121.574L357.593 120.721C357.338 121.58 357.481 122.508 357.982 123.251C358.483 123.994 359.29 124.474 360.182 124.56L360.469 121.574ZM374.953 72.7677L374.797 69.7717C373.528 69.838 372.439 70.6962 372.077 71.9141L374.953 72.7677ZM395.313 71.7043L398.193 70.864C397.803 69.5282 396.546 68.6358 395.156 68.7084L395.313 71.7043ZM387.975 103.871L387.981 106.871C388.889 106.87 389.747 106.457 390.315 105.748C390.884 105.04 391.1 104.113 390.905 103.226L387.975 103.871ZM385.168 91.1324L388.098 90.4869C387.794 89.1067 386.568 88.1259 385.154 88.1325C383.741 88.139 382.524 89.131 382.233 90.5139L385.168 91.1324ZM382.482 103.882L379.547 103.263C379.36 104.149 379.583 105.071 380.154 105.774C380.725 106.476 381.583 106.883 382.488 106.882L382.482 103.882ZM409.297 117.995L391.138 120.373L391.917 126.322L410.076 123.944L409.297 117.995ZM394.425 122.572L392.213 114.3L386.416 115.85L388.629 124.122L394.425 122.572ZM389.309 112.075L380.959 112.091L380.97 118.09L389.32 118.075L389.309 112.075ZM378.035 114.448L376.219 122.728L382.08 124.013L383.895 115.733L378.035 114.448ZM379.436 120.384L360.756 118.588L360.182 124.56L378.862 126.356L379.436 120.384ZM363.345 122.428L377.829 73.6212L372.077 71.9141L357.593 120.721L363.345 122.428ZM375.11 75.7636L395.469 74.7002L395.156 68.7084L374.797 69.7717L375.11 75.7636ZM392.433 72.5446L406.807 121.81L412.567 120.129L398.193 70.864L392.433 72.5446ZM390.905 103.226L388.098 90.4869L382.239 91.778L385.046 104.517L390.905 103.226ZM382.233 90.5139L379.547 103.263L385.418 104.5L388.104 91.7509L382.233 90.5139ZM382.488 106.882L387.981 106.871L387.97 100.871L382.476 100.882L382.488 106.882ZM444.751 71.6853L447.751 71.7505C447.768 70.9418 447.458 70.1603 446.892 69.5832C446.325 69.0061 445.549 68.6823 444.74 68.6853L444.751 71.6853ZM444.414 87.2133L444.54 90.2107C446.121 90.144 447.379 88.8606 447.413 87.2785L444.414 87.2133ZM433.502 87.6731L433.375 84.6758C431.859 84.7397 430.629 85.9259 430.511 87.439L433.502 87.6731ZM430.783 122.395L430.945 125.391C432.447 125.31 433.657 124.129 433.774 122.629L430.783 122.395ZM415.331 123.23L412.331 123.229C412.331 124.053 412.669 124.84 413.267 125.407C413.865 125.974 414.67 126.27 415.492 126.225L415.331 123.23ZM415.339 88.5127L418.339 88.5134C418.339 87.6887 418 86.9003 417.401 86.3336C416.802 85.7668 415.996 85.4715 415.173 85.5173L415.339 88.5127ZM404.427 89.119L401.428 89.0483C401.408 89.8849 401.739 90.6917 402.34 91.2739C402.941 91.8561 403.758 92.1608 404.594 92.1143L404.427 89.119ZM404.834 71.833L404.823 68.833C403.198 68.839 401.874 70.1378 401.835 71.7624L404.834 71.833ZM441.752 71.6202L441.415 87.1482L447.413 87.2785L447.751 71.7505L441.752 71.6202ZM444.288 84.216L433.375 84.6758L433.628 90.6705L444.54 90.2107L444.288 84.216ZM430.511 87.439L427.792 122.161L433.774 122.629L436.493 87.9073L430.511 87.439ZM430.622 119.399L415.169 120.234L415.492 126.225L430.945 125.391L430.622 119.399ZM418.331 123.23L418.339 88.5134L412.339 88.5119L412.331 123.229L418.331 123.23ZM415.173 85.5173L404.261 86.1236L404.594 92.1143L415.506 91.508L415.173 85.5173ZM407.426 89.1896L407.834 71.9037L401.835 71.7624L401.428 89.0483L407.426 89.1896ZM404.846 74.833L444.762 74.6853L444.74 68.6853L404.823 68.833L404.846 74.833ZM481.445 71.1774L484.439 71.3629C484.49 70.5357 484.197 69.7241 483.629 69.1207C483.06 68.5173 482.268 68.1759 481.439 68.1774L481.445 71.1774ZM480.591 84.8021L480.752 87.7978C482.249 87.7173 483.457 86.5446 483.581 85.0509L480.591 84.8021ZM465.065 85.6367L464.904 82.641C463.401 82.7218 462.191 83.9041 462.074 85.4049L465.065 85.6367ZM464.708 90.2516L461.717 90.0199C461.652 90.8543 461.939 91.6777 462.508 92.2914C463.077 92.9051 463.876 93.2532 464.713 93.2516L464.708 90.2516ZM475.621 90.2313L478.614 90.4381C478.671 89.6075 478.381 88.7905 477.812 88.1823C477.244 87.5742 476.448 87.2297 475.615 87.2313L475.621 90.2313ZM474.836 101.585L474.942 104.583C476.477 104.529 477.723 103.325 477.829 101.792L474.836 101.585ZM463.851 101.972L463.745 98.9739C462.207 99.028 460.96 100.237 460.857 101.773L463.851 101.972ZM463.494 107.319L460.501 107.12C460.446 107.949 460.737 108.765 461.306 109.371C461.874 109.977 462.669 110.321 463.5 110.319L463.494 107.319ZM479.022 107.29L482.018 107.448C482.061 106.625 481.764 105.821 481.196 105.224C480.629 104.626 479.84 104.289 479.016 104.29L479.022 107.29ZM478.561 115.311L475.567 115.125C475.566 115.133 475.565 115.142 475.565 115.15L478.561 115.311ZM478.173 123.259L478.248 126.258C479.824 126.218 481.1 124.966 481.17 123.391L478.173 123.259ZM446.607 124.05L443.607 123.989C443.591 124.808 443.91 125.599 444.49 126.176C445.071 126.754 445.863 127.07 446.682 127.049L446.607 124.05ZM447.68 71.2404L447.675 68.2404C446.044 68.2434 444.714 69.5489 444.681 71.1794L447.68 71.2404ZM478.45 70.9919C478.308 73.2963 478.177 75.5765 478.059 77.8325L484.05 78.1469C484.168 75.9102 484.297 73.6489 484.439 71.3629L478.45 70.9919ZM478.059 77.8325C477.942 80.0475 477.79 82.2878 477.602 84.5533L483.581 85.0509C483.774 82.7259 483.931 80.4245 484.05 78.1469L478.059 77.8325ZM480.43 81.8064L464.904 82.641L465.226 88.6324L480.752 87.7978L480.43 81.8064ZM462.074 85.4049L461.717 90.0199L467.699 90.4834L468.056 85.8685L462.074 85.4049ZM464.713 93.2516L475.626 93.2313L475.615 87.2313L464.702 87.2516L464.713 93.2516ZM472.628 90.0245L471.843 101.379L477.829 101.792L478.614 90.4381L472.628 90.0245ZM474.731 98.5872L463.745 98.9739L463.956 104.97L474.942 104.583L474.731 98.5872ZM460.857 101.773L460.501 107.12L466.488 107.519L466.844 102.171L460.857 101.773ZM463.5 110.319L472.582 110.302L472.571 104.302L463.489 104.319L463.5 110.319ZM472.582 110.302L479.027 110.29L479.016 104.29L472.571 104.302L472.582 110.302ZM476.026 107.133C475.885 109.809 475.732 112.473 475.567 115.125L481.555 115.498C481.721 112.827 481.876 110.144 482.018 107.448L476.026 107.133ZM475.565 115.15C475.423 117.797 475.293 120.456 475.176 123.127L481.17 123.391C481.286 120.739 481.415 118.099 481.556 115.472L475.565 115.15ZM478.098 120.26L446.532 121.051L446.682 127.049L478.248 126.258L478.098 120.26ZM449.606 124.111L450.679 71.3014L444.681 71.1794L443.607 123.989L449.606 124.111ZM447.686 74.2404L481.45 74.1774L481.439 68.1774L447.675 68.2404L447.686 74.2404ZM525.176 93.801L522.244 93.1654C522.242 93.1769 522.239 93.1886 522.237 93.2002L525.176 93.801ZM516.847 104.803L515.242 102.268C513.892 103.123 513.449 104.885 514.234 106.276L516.847 104.803ZM525.592 120.314L526.173 123.257C527.117 123.071 527.915 122.442 528.317 121.568C528.719 120.693 528.678 119.679 528.205 118.841L525.592 120.314ZM509.118 123.567L506.299 124.592C506.804 125.983 508.248 126.797 509.699 126.51L509.118 123.567ZM503.449 107.977L506.269 106.952C505.825 105.731 504.645 104.935 503.347 104.979L503.449 107.977ZM498.909 108.132L498.806 105.134C497.238 105.187 495.976 106.44 495.911 108.008L498.909 108.132ZM498.278 123.368L498.283 126.368C499.89 126.365 501.209 125.097 501.275 123.492L498.278 123.368ZM482.531 123.397L479.531 123.337C479.515 124.144 479.825 124.923 480.39 125.499C480.956 126.075 481.729 126.399 482.536 126.397L482.531 123.397ZM482.829 106.771L479.83 106.71L479.83 106.723L482.829 106.771ZM483.201 90.1439L486.2 90.2172C486.201 90.2083 486.201 90.1994 486.201 90.1905L483.201 90.1439ZM483.61 73.4439L482.56 70.6336C481.438 71.0524 480.673 72.0977 480.613 73.2932L483.61 73.4439ZM493.639 70.8983L494.038 73.8717C494.05 73.87 494.063 73.8683 494.075 73.8665L493.639 70.8983ZM498.728 70.4128L498.862 73.4098C498.876 73.4092 498.889 73.4085 498.903 73.4077L498.728 70.4128ZM512.097 71.4132L511.235 74.2868C511.246 74.29 511.257 74.2932 511.268 74.2963L512.097 71.4132ZM523.833 80.5832L521.175 81.9749C521.179 81.9823 521.183 81.9897 521.187 81.997L523.833 80.5832ZM508.83 86.9833L505.97 87.8881C505.978 87.9127 505.986 87.9372 505.994 87.9616L508.83 86.9833ZM507.581 84.7884L505.294 86.7305C505.321 86.7621 505.349 86.7932 505.377 86.8236L507.581 84.7884ZM505.527 83.3273L504.291 86.0608C504.324 86.0756 504.357 86.0899 504.39 86.1035L505.527 83.3273ZM501.242 82.8959L501.562 85.8788C501.613 85.8733 501.664 85.8665 501.715 85.8583L501.242 82.8959ZM499.887 83.1548L499.079 80.2657C497.827 80.616 496.943 81.7326 496.89 83.0314L499.887 83.1548ZM499.327 96.7789L496.329 96.6556C496.296 97.4729 496.597 98.2685 497.164 98.8582C497.731 99.4478 498.515 99.7804 499.333 99.7789L499.327 96.7789ZM503.391 96.3685L502.673 93.4556C502.668 93.4569 502.663 93.4581 502.658 93.4594L503.391 96.3685ZM506.318 95.1179L504.699 92.5928C504.688 92.5998 504.677 92.6068 504.666 92.6138L506.318 95.1179ZM508.438 92.9533L505.907 91.3428C505.897 91.3597 505.886 91.3766 505.876 91.3937L508.438 92.9533ZM522.679 88.6054C522.682 90.3336 522.53 91.8483 522.244 93.1654L528.108 94.4366C528.5 92.6274 528.683 90.6746 528.679 88.5942L522.679 88.6054ZM522.237 93.2002C521.978 94.4661 521.566 95.5994 521.011 96.6168L526.28 99.487C527.137 97.9139 527.745 96.2132 528.115 94.4018L522.237 93.2002ZM521.011 96.6168C520.456 97.6354 519.727 98.5986 518.804 99.5053L523.008 103.786C524.326 102.492 525.424 101.059 526.28 99.487L521.011 96.6168ZM518.804 99.5053C517.86 100.432 516.681 101.357 515.242 102.268L518.452 107.337C520.183 106.241 521.71 105.061 523.008 103.786L518.804 99.5053ZM514.234 106.276L522.978 121.787L528.205 118.841L519.46 103.33L514.234 106.276ZM525.01 117.371L508.537 120.624L509.699 126.51L526.173 123.257L525.01 117.371ZM511.938 122.542L506.269 106.952L500.63 109.002L506.299 124.592L511.938 122.542ZM503.347 104.979L498.806 105.134L499.011 111.13L503.552 110.976L503.347 104.979ZM495.911 108.008L495.28 123.244L501.275 123.492L501.906 108.256L495.911 108.008ZM498.272 120.368L482.525 120.397L482.536 126.397L498.283 126.368L498.272 120.368ZM485.53 123.457C485.642 117.887 485.742 112.34 485.829 106.818L479.83 106.723C479.743 112.237 479.643 117.775 479.531 123.337L485.53 123.457ZM485.829 106.831C485.941 101.318 486.064 95.7798 486.2 90.2172L480.202 90.0706C480.066 95.6414 479.942 101.188 479.83 106.71L485.829 106.831ZM486.201 90.1905C486.244 87.3831 486.288 84.6001 486.332 81.8415L480.333 81.7465C480.289 84.5057 480.245 87.2893 480.202 90.0973L486.201 90.1905ZM486.332 81.8415C486.375 79.1177 486.466 76.3688 486.606 73.5946L480.613 73.2932C480.47 76.1348 480.377 78.9526 480.333 81.7465L486.332 81.8415ZM484.659 76.2542C486.27 75.6525 487.848 75.1582 489.393 74.7688L487.927 68.9507C486.154 69.3976 484.365 69.9594 482.56 70.6336L484.659 76.2542ZM489.393 74.7688C490.945 74.3778 492.493 74.0791 494.038 73.8717L493.24 67.925C491.465 68.1632 489.694 68.5055 487.927 68.9507L489.393 74.7688ZM494.075 73.8665C495.658 73.634 497.254 73.4817 498.862 73.4098L498.594 67.4158C496.785 67.4967 494.988 67.6681 493.203 67.9302L494.075 73.8665ZM498.903 73.4077C500.578 73.3102 502.291 73.2596 504.044 73.2564L504.033 67.2564C502.172 67.2598 500.346 67.3135 498.554 67.4178L498.903 73.4077ZM504.044 73.2564C506.542 73.2517 508.936 73.5972 511.235 74.2868L512.959 68.5396C510.08 67.6764 507.101 67.2507 504.033 67.2564L504.044 73.2564ZM511.268 74.2963C513.55 74.9528 515.516 75.9352 517.202 77.225L520.848 72.4603C518.524 70.6815 515.872 69.3775 512.926 68.5302L511.268 74.2963ZM517.202 77.225C518.851 78.4871 520.172 80.0593 521.175 81.9749L526.491 79.1916C525.093 76.5218 523.209 74.267 520.848 72.4603L517.202 77.225ZM521.187 81.997C522.143 83.7867 522.674 85.9594 522.679 88.6054L528.679 88.5942C528.672 85.1368 527.973 81.9651 526.479 79.1695L521.187 81.997ZM512.275 89.7967C512.272 88.4844 512.082 87.2111 511.666 86.005L505.994 87.9616C506.167 88.4634 506.274 89.0694 506.275 89.8079L512.275 89.7967ZM511.69 86.0785C511.298 84.8382 510.67 83.7117 509.785 82.7531L505.377 86.8236C505.617 87.0836 505.822 87.4204 505.97 87.8881L511.69 86.0785ZM509.868 82.8463C508.994 81.8178 507.903 81.0586 506.665 80.5512L504.39 86.1035C504.813 86.2766 505.091 86.4914 505.294 86.7305L509.868 82.8463ZM506.764 80.5939C505.485 80.0155 504.091 79.7807 502.664 79.7834L502.676 85.7834C503.447 85.7819 503.957 85.9098 504.291 86.0608L506.764 80.5939ZM502.664 79.7834C502.026 79.7846 501.393 79.8337 500.769 79.9335L501.715 85.8583C502.018 85.8099 502.338 85.784 502.676 85.7834L502.664 79.7834ZM500.922 79.913C500.297 79.98 499.682 80.097 499.079 80.2657L500.696 86.0438C500.971 85.9667 501.259 85.9112 501.562 85.8788L500.922 79.913ZM496.89 83.0314L496.329 96.6556L502.324 96.9022L502.885 83.2781L496.89 83.0314ZM499.333 99.7789L500.211 99.7772L500.2 93.7772L499.321 93.7789L499.333 99.7789ZM500.211 99.7772C501.52 99.7748 502.826 99.6048 504.124 99.2775L502.658 93.4594C501.809 93.6733 500.992 93.7758 500.2 93.7772L500.211 99.7772ZM504.109 99.2813C505.504 98.9374 506.803 98.3926 507.971 97.6219L504.666 92.6138C504.127 92.9694 503.474 93.2583 502.673 93.4556L504.109 99.2813ZM507.938 97.643C509.195 96.837 510.226 95.7871 511.001 94.5129L505.876 91.3937C505.58 91.8793 505.198 92.2725 504.699 92.5928L507.938 97.643ZM510.97 94.5637C511.886 93.1234 512.278 91.4905 512.275 89.7967L506.275 89.8079C506.276 90.5555 506.111 91.0233 505.907 91.3428L510.97 94.5637Z" fill="black" mask="url(#path-16-outside-2_1_2)"/>
<defs>
<linearGradient id="paint0_linear_1_2" x1="168.413" y1="39.6261" x2="135.246" y2="98.7405" gradientUnits="userSpaceOnUse">
<stop stop-color="#232830"/>
<stop offset="1" stop-color="#716E96"/>
</linearGradient>
<linearGradient id="paint1_linear_1_2" x1="225.976" y1="34.5582" x2="95.7579" y2="148.839" gradientUnits="userSpaceOnUse">
<stop stop-color="#802392"/>
<stop offset="1" stop-color="#995FA3"/>
</linearGradient>
</defs>
</svg>
