<svg width="250" height="250" viewBox="0 0 250 250" fill="none" xmlns="http://www.w3.org/2000/svg">
<path fill-rule="evenodd" clip-rule="evenodd" d="M245.5 142.5L196.5 73L22.5 55L76 123L245.5 142.5ZM55.6703 75.4996L61.2353 70.572L184.068 84.1822L190.488 90.2669L55.6703 75.4996ZM73.9984 88.7408L68.4334 93.6683L203.252 108.436L196.831 102.351L73.9984 88.7408ZM82.1833 112.85L87.7483 107.923L210.581 121.533L217.001 127.617L82.1833 112.85Z" fill="url(#paint0_linear_1_45)"/>
<path d="M61.2353 70.572L55.6703 75.4996L190.488 90.2669L184.068 84.1822L61.2353 70.572Z" stroke="black" stroke-linejoin="round"/>
<path d="M73.9984 88.7408L68.4334 93.6683L203.252 108.436L196.831 102.351L73.9984 88.7408Z" stroke="black" stroke-linejoin="round"/>
<path d="M87.7483 107.923L82.1833 112.85L217.001 127.617L210.581 121.533L87.7483 107.923Z" stroke="black" stroke-linejoin="round"/>
<path d="M196.5 73L245.5 142.5L76 123L22.5 55L196.5 73Z" stroke="black" stroke-width="4" stroke-linejoin="round"/>
<path d="M245.5 142.5L189 195L9.5 175.5L74.5 123L245.5 142.5Z" fill="url(#paint1_linear_1_45)" stroke="black" stroke-width="4" stroke-linejoin="round"/>
<path d="M4 167.5L9.5 175.5L75.5 122L22.5 55L14 60.5L53 120L4 167.5Z" fill="#072417" stroke="black" stroke-width="4" stroke-linecap="round" stroke-linejoin="round"/>
<g opacity="0.49">
<path d="M179 158.5C183.013 152.26 179.514 142.933 171.5 124.5C169.516 126.37 168.457 127.457 163.85 127.5C159.643 125.083 156.733 125.192 151.5 125.5C149.257 126.054 148.324 127.346 148 133.716C147.263 135.524 146.553 136.353 142.175 136C136.393 131.136 133.961 130.86 130 131.5C126.808 131.92 125.336 135.115 123 143.52C121.653 145.066 120.65 145.415 118.5 145.284C112.918 139.518 110.571 139.179 106.5 139C104.17 138.977 63.9021 167.019 55.5549 180.091L115 186.091C138.496 176.151 161.608 165.97 179 158.5Z" fill="#A5F8D3" stroke="black" stroke-width="5" stroke-linecap="round" stroke-linejoin="round"/>
<path d="M172 125.5C172.512 104.631 173.67 95.949 179.5 93.5C189.139 87.4306 193.038 90.1877 195.5 113.5C196.65 129.453 196.89 138.304 205.5 156C205.665 161.408 207.417 163.942 202.5 171C194.697 180.89 190.091 177.635 181.5 157.5C180.28 145.272 177.817 138.224 172 125.5Z" fill="#C4F5E0" stroke="black" stroke-width="5" stroke-linecap="round" stroke-linejoin="round"/>
<path d="M233.5 118.5C224.075 91.2692 210.567 90.2509 188 91C191.186 94.5887 192.917 96.9126 194 102C210.439 103.912 217.036 107.262 222 121.5C224.874 136.192 224.429 144.203 205.5 156.5C206.867 164.775 205.392 168.496 200 174C238.829 153.801 238.23 140.52 233.5 118.5Z" fill="#EAF8F2" stroke="black" stroke-width="3" stroke-linecap="round" stroke-linejoin="round"/>
<path d="M80.2231 168C81.1709 168.106 81.4671 168.408 81.857 169.089C82.4134 169.235 82.6309 169.384 82.6739 169.906C82.5649 170.523 82.3742 170.685 81.857 170.723V174.263H80.4954V173.174H79.6785V174.263H78.3169V173.174H77.5V169.906H78.3169V169.089C78.997 168.122 79.4303 168.017 80.2231 168Z" fill="#E8FFF5"/>
<path d="M81.857 169.089C81.4671 168.408 81.1709 168.106 80.2231 168C79.4303 168.017 78.997 168.122 78.3169 169.089V169.906M81.857 169.089C82.4134 169.235 82.6309 169.384 82.6739 169.906C82.5649 170.523 82.3742 170.685 81.857 170.723M81.857 169.089H79.6785C79.3053 169.32 79.0805 169.478 79.1339 169.906C79.131 170.382 79.2263 170.579 79.6785 170.723H81.857M81.857 170.723V174.263H80.4954V173.174M80.4954 173.174C80.7399 173.131 80.8559 173.065 81.04 172.902M80.4954 173.174H79.6785V174.263H78.3169V173.174M78.3169 173.174H77.5V169.906H78.3169M78.3169 173.174V169.906" stroke="#DDFFF0" stroke-width="0.544622" stroke-linecap="round" stroke-linejoin="round"/>
<path d="M105.5 151C97.1023 154.891 92.5919 157.312 86.5 164" stroke="#DDFFF0" stroke-width="8" stroke-linecap="round" stroke-linejoin="round"/>
</g>
<mask id="path-14-outside-1_1_45" maskUnits="userSpaceOnUse" x="57.7256" y="30.7399" width="96.1173" height="120.188" fill="black">
<rect fill="white" x="57.7256" y="30.7399" width="96.1173" height="120.188"/>
<path d="M114.785 107.827L94.3878 112.05C93.2231 107.844 92.7272 104.233 92.9002 101.219C93.0648 98.1637 93.595 95.5574 94.4909 93.3999C95.4187 91.1939 96.5664 89.3409 97.9341 87.8409C99.3337 86.2924 100.71 84.9374 102.064 83.776C103.45 82.566 104.643 81.4379 105.643 80.3916C106.683 79.3371 107.3 78.1605 107.493 76.8619C107.624 76.0794 107.534 75.238 107.222 74.3376C106.901 73.3971 106.291 72.5793 105.392 71.8844C104.533 71.1811 103.341 70.6937 101.817 70.422C100.324 70.1018 98.4709 70.1708 96.2581 70.6289C94.8097 70.9289 93.1089 71.4279 91.1556 72.1261C89.2343 72.7757 87.2456 73.607 85.1897 74.6201C83.1255 75.593 81.1105 76.7025 79.1448 77.9487C77.2111 79.1463 75.5034 80.4229 74.022 81.7786L66.4682 58.6721C67.7735 57.4787 69.2557 56.2278 70.9147 54.9192C72.6057 53.5621 74.5027 52.2882 76.6057 51.0975C78.7004 49.8666 81.0255 48.7348 83.5808 47.7022C86.1361 46.6696 88.9426 45.8367 92.0003 45.2035C96.9488 44.1789 101.757 43.8964 106.426 44.3563C111.135 44.8078 115.413 46.0196 119.262 47.9918C123.111 49.964 126.405 52.7014 129.144 56.204C131.875 59.6664 133.761 63.9121 134.803 68.9411C135.594 72.7632 135.688 75.9534 135.085 78.5118C134.474 81.0299 133.477 83.2082 132.096 85.0467C130.714 86.8852 129.082 88.5239 127.198 89.9629C125.314 91.4019 123.491 92.9332 121.73 94.5567C120 96.1316 118.469 97.959 117.138 100.039C115.847 102.11 115.062 104.706 114.785 107.827ZM121.102 123.134C121.468 124.904 121.468 126.624 121.101 128.295C120.733 129.965 120.083 131.484 119.149 132.852C118.264 134.252 117.124 135.432 115.729 136.393C114.341 137.393 112.783 138.073 111.053 138.431C109.283 138.797 107.562 138.797 105.892 138.43C104.23 138.102 102.695 137.476 101.286 136.551C99.9266 135.658 98.7464 134.518 97.7459 133.131C96.7856 131.735 96.1222 130.152 95.7557 128.382C95.3974 126.652 95.3777 124.936 95.6965 123.233C96.0556 121.523 96.6817 119.988 97.575 118.628C98.5001 117.22 99.6563 116.015 101.043 115.015C102.431 114.014 104.009 113.331 105.78 112.964C107.51 112.606 109.21 112.61 110.88 112.978C112.551 113.345 114.07 113.996 115.438 114.929C116.838 115.814 118.042 116.97 119.051 118.397C120.06 119.825 120.744 121.404 121.102 123.134Z"/>
</mask>
<path d="M114.785 107.827L94.3878 112.05C93.2231 107.844 92.7272 104.233 92.9002 101.219C93.0648 98.1637 93.595 95.5574 94.4909 93.3999C95.4187 91.1939 96.5664 89.3409 97.9341 87.8409C99.3337 86.2924 100.71 84.9374 102.064 83.776C103.45 82.566 104.643 81.4379 105.643 80.3916C106.683 79.3371 107.3 78.1605 107.493 76.8619C107.624 76.0794 107.534 75.238 107.222 74.3376C106.901 73.3971 106.291 72.5793 105.392 71.8844C104.533 71.1811 103.341 70.6937 101.817 70.422C100.324 70.1018 98.4709 70.1708 96.2581 70.6289C94.8097 70.9289 93.1089 71.4279 91.1556 72.1261C89.2343 72.7757 87.2456 73.607 85.1897 74.6201C83.1255 75.593 81.1105 76.7025 79.1448 77.9487C77.2111 79.1463 75.5034 80.4229 74.022 81.7786L66.4682 58.6721C67.7735 57.4787 69.2557 56.2278 70.9147 54.9192C72.6057 53.5621 74.5027 52.2882 76.6057 51.0975C78.7004 49.8666 81.0255 48.7348 83.5808 47.7022C86.1361 46.6696 88.9426 45.8367 92.0003 45.2035C96.9488 44.1789 101.757 43.8964 106.426 44.3563C111.135 44.8078 115.413 46.0196 119.262 47.9918C123.111 49.964 126.405 52.7014 129.144 56.204C131.875 59.6664 133.761 63.9121 134.803 68.9411C135.594 72.7632 135.688 75.9534 135.085 78.5118C134.474 81.0299 133.477 83.2082 132.096 85.0467C130.714 86.8852 129.082 88.5239 127.198 89.9629C125.314 91.4019 123.491 92.9332 121.73 94.5567C120 96.1316 118.469 97.959 117.138 100.039C115.847 102.11 115.062 104.706 114.785 107.827ZM121.102 123.134C121.468 124.904 121.468 126.624 121.101 128.295C120.733 129.965 120.083 131.484 119.149 132.852C118.264 134.252 117.124 135.432 115.729 136.393C114.341 137.393 112.783 138.073 111.053 138.431C109.283 138.797 107.562 138.797 105.892 138.43C104.23 138.102 102.695 137.476 101.286 136.551C99.9266 135.658 98.7464 134.518 97.7459 133.131C96.7856 131.735 96.1222 130.152 95.7557 128.382C95.3974 126.652 95.3777 124.936 95.6965 123.233C96.0556 121.523 96.6817 119.988 97.575 118.628C98.5001 117.22 99.6563 116.015 101.043 115.015C102.431 114.014 104.009 113.331 105.78 112.964C107.51 112.606 109.21 112.61 110.88 112.978C112.551 113.345 114.07 113.996 115.438 114.929C116.838 115.814 118.042 116.97 119.051 118.397C120.06 119.825 120.744 121.404 121.102 123.134Z" fill="#FF1818"/>
<path d="M114.785 107.827L115.809 112.77C117.99 112.319 119.617 110.491 119.814 108.273L114.785 107.827ZM94.3878 112.05L89.5223 113.397C90.2319 115.96 92.8076 117.533 95.4115 116.994L94.3878 112.05ZM92.9002 101.219L97.9405 101.508C97.9408 101.502 97.9411 101.496 97.9414 101.49L92.9002 101.219ZM94.4909 93.3999L89.8371 91.4427C89.8341 91.4498 89.8312 91.4568 89.8283 91.4638L94.4909 93.3999ZM97.9341 87.8409L101.665 91.2425C101.67 91.2371 101.675 91.2316 101.68 91.2262L97.9341 87.8409ZM102.064 83.776L105.351 87.6078C105.363 87.5982 105.374 87.5886 105.385 87.5789L102.064 83.776ZM105.643 80.3916L102.049 76.8461C102.03 76.8649 102.012 76.8839 101.994 76.9031L105.643 80.3916ZM107.493 76.8619L102.514 76.0241C102.509 76.0564 102.503 76.0887 102.499 76.1211L107.493 76.8619ZM107.222 74.3376L102.443 75.9666C102.446 75.9751 102.449 75.9836 102.452 75.9921L107.222 74.3376ZM105.392 71.8844L102.194 75.7906C102.23 75.8206 102.267 75.85 102.305 75.879L105.392 71.8844ZM101.817 70.422L100.758 75.3583C100.815 75.3706 100.873 75.382 100.931 75.3923L101.817 70.422ZM91.1556 72.1261L92.7726 76.9087C92.8001 76.8994 92.8275 76.8899 92.8549 76.8801L91.1556 72.1261ZM85.1897 74.6201L87.3421 79.1869C87.3686 79.1744 87.395 79.1617 87.4213 79.1487L85.1897 74.6201ZM79.1448 77.9487L81.803 82.2408C81.8181 82.2315 81.8331 82.2221 81.848 82.2126L79.1448 77.9487ZM74.022 81.7786L69.2233 83.3474C69.7562 84.9776 71.0804 86.2258 72.7393 86.6616C74.3982 87.0973 76.1649 86.661 77.4302 85.5031L74.022 81.7786ZM66.4682 58.6721L63.0617 54.9459C61.5978 56.2842 61.0532 58.3556 61.6695 60.2408L66.4682 58.6721ZM70.9147 54.9192L74.0412 58.8832C74.0524 58.8744 74.0636 58.8655 74.0747 58.8566L70.9147 54.9192ZM76.6057 51.0975L79.0931 55.4908C79.1167 55.4774 79.1402 55.4639 79.1635 55.4502L76.6057 51.0975ZM106.426 44.3563L105.931 49.3806L105.944 49.3818L106.426 44.3563ZM129.144 56.204L125.168 59.3141C125.172 59.3196 125.176 59.3251 125.18 59.3305L129.144 56.204ZM135.085 78.5118L139.991 79.703C139.994 79.692 139.997 79.6811 139.999 79.6701L135.085 78.5118ZM121.73 94.5567L125.129 98.2897C125.136 98.2829 125.144 98.2761 125.151 98.2692L121.73 94.5567ZM117.138 100.039L112.886 97.3168C112.875 97.3339 112.864 97.351 112.853 97.3682L117.138 100.039ZM119.149 132.852L114.979 130.007C114.946 130.056 114.913 130.105 114.882 130.155L119.149 132.852ZM115.729 136.393L112.867 132.234C112.836 132.255 112.806 132.276 112.775 132.298L115.729 136.393ZM105.892 138.43L106.976 133.499C106.94 133.491 106.903 133.483 106.867 133.476L105.892 138.43ZM101.286 136.551L104.058 132.332L101.286 136.551ZM97.7459 133.131L93.5869 135.992C93.608 136.023 93.6294 136.054 93.6512 136.084L97.7459 133.131ZM95.6965 123.233L90.7556 122.196C90.7481 122.232 90.741 122.268 90.7342 122.304L95.6965 123.233ZM115.438 114.929L112.593 119.099C112.641 119.133 112.691 119.165 112.741 119.197L115.438 114.929ZM113.762 102.883L93.3641 107.107L95.4115 116.994L115.809 112.77L113.762 102.883ZM99.2533 110.703C98.1763 106.813 97.8098 103.785 97.9405 101.508L87.8599 100.93C87.6446 104.682 88.27 108.875 89.5223 113.397L99.2533 110.703ZM97.9414 101.49C98.0842 98.8403 98.5336 96.8289 99.1535 95.336L89.8283 91.4638C88.6564 94.2859 88.0453 97.487 87.8589 100.947L97.9414 101.49ZM99.1446 95.3571C99.8883 93.5889 100.747 92.2487 101.665 91.2425L94.2035 84.4393C92.3855 86.4331 90.949 88.7989 89.8371 91.4427L99.1446 95.3571ZM101.68 91.2262C102.959 89.8101 104.184 88.6092 105.351 87.6078L98.7771 79.9442C97.2367 81.2657 95.708 82.7747 94.1886 84.4557L101.68 91.2262ZM105.385 87.5789C106.856 86.2944 108.164 85.0607 109.293 83.8802L101.994 76.9031C101.122 77.815 100.044 78.8376 98.7437 79.9731L105.385 87.5789ZM109.237 83.9372C110.929 82.2222 112.117 80.0949 112.486 77.6027L102.499 76.1211C102.483 76.2261 102.438 76.4519 102.049 76.8461L109.237 83.9372ZM112.471 77.6996C112.769 75.9294 112.526 74.2234 111.991 72.6831L102.452 75.9921C102.498 76.1256 102.504 76.1864 102.504 76.1828C102.504 76.1807 102.502 76.1643 102.503 76.1354C102.503 76.1063 102.507 76.0685 102.514 76.0241L112.471 77.6996ZM112 72.7087C111.316 70.7013 110.046 69.1009 108.479 67.8898L102.305 75.879C102.432 75.9775 102.475 76.0349 102.477 76.0372C102.478 76.039 102.473 76.032 102.465 76.0167C102.456 76.0013 102.449 75.9838 102.443 75.9666L112 72.7087ZM108.59 67.9782C106.852 66.5548 104.758 65.8179 102.702 65.4517L100.931 75.3923C101.925 75.5694 102.214 75.8075 102.194 75.7906L108.59 67.9782ZM102.875 65.4857C100.449 64.9652 97.8332 65.1471 95.2344 65.6852L97.2818 75.5727C99.1085 75.1944 100.199 75.2384 100.758 75.3583L102.875 65.4857ZM95.2344 65.6852C93.4861 66.0473 91.5498 66.6238 89.4564 67.372L92.8549 76.8801C94.668 76.232 96.1334 75.8105 97.2818 75.5727L95.2344 65.6852ZM89.5387 67.3434C87.3821 68.0725 85.1879 68.9927 82.9581 70.0915L87.4213 79.1487C89.3033 78.2213 91.0864 77.4788 92.7726 76.9087L89.5387 67.3434ZM83.0374 70.0533C80.7797 71.1174 78.581 72.3285 76.4417 73.6848L81.848 82.2126C83.6401 81.0765 85.4713 80.0686 87.3421 79.1869L83.0374 70.0533ZM76.4867 73.6566C74.3203 74.9983 72.3551 76.4606 70.6137 78.0541L77.4302 85.5031C78.6518 84.3853 80.1019 83.2943 81.803 82.2408L76.4867 73.6566ZM78.8206 80.2099L71.2668 57.1033L61.6695 60.2408L69.2233 83.3474L78.8206 80.2099ZM69.8747 62.3982C71.0742 61.3015 72.4605 60.13 74.0412 58.8832L67.7882 50.9552C66.0508 52.3256 64.4727 53.6559 63.0617 54.9459L69.8747 62.3982ZM74.0747 58.8566C75.5317 57.6872 77.1998 56.5628 79.0931 55.4908L74.1183 46.7042C71.8056 48.0136 69.6797 49.4369 67.7547 50.9819L74.0747 58.8566ZM79.1635 55.4502C81.0183 54.3602 83.1169 53.3349 85.4723 52.383L81.6893 43.0213C78.9341 44.1347 76.3825 45.3729 74.0479 46.7448L79.1635 55.4502ZM85.4723 52.383C87.7127 51.4777 90.2245 50.7269 93.024 50.1473L90.9766 40.2598C87.6607 40.9464 84.5596 41.8615 81.6893 43.0213L85.4723 52.383ZM93.024 50.1473C97.5118 49.218 101.807 48.9744 105.931 49.3805L106.921 39.332C101.707 38.8185 96.3859 39.1397 90.9766 40.2598L93.024 50.1473ZM105.944 49.3818C110.078 49.7782 113.73 50.8298 116.96 52.4849L121.565 43.4987C117.097 41.2095 112.192 39.8374 106.908 39.3307L105.944 49.3818ZM116.96 52.4849C120.138 54.1135 122.867 56.3718 125.168 59.3141L133.121 53.0939C129.944 49.031 126.084 45.8145 121.565 43.4987L116.96 52.4849ZM125.18 59.3305C127.352 62.0838 128.951 65.5771 129.859 69.9648L139.746 67.9174C138.572 62.2472 136.399 57.2491 133.108 53.0775L125.18 59.3305ZM129.859 69.9648C130.567 73.3858 130.544 75.7729 130.171 77.3534L139.999 79.6701C140.833 76.1339 140.621 72.1405 139.746 67.9174L129.859 69.9648ZM130.179 77.3206C129.709 79.2566 128.98 80.7892 128.06 82.0138L136.132 88.0796C137.975 85.6272 139.239 82.8033 139.991 79.703L130.179 77.3206ZM128.06 82.0138C126.964 83.4718 125.661 84.7837 124.133 85.951L130.263 93.9749C132.502 92.2642 134.465 90.2986 136.132 88.0796L128.06 82.0138ZM124.133 85.951C122.125 87.4852 120.183 89.1165 118.308 90.8442L125.151 98.2692C126.8 96.7498 128.504 95.3186 130.263 93.9749L124.133 85.951ZM118.331 90.8236C116.256 92.7128 114.443 94.8848 112.886 97.3168L121.39 102.761C122.496 101.033 123.744 99.5504 125.129 98.2897L118.331 90.8236ZM112.853 97.3682C111.041 100.276 110.084 103.687 109.757 107.38L119.814 108.273C120.04 105.725 120.652 103.945 121.422 102.71L112.853 97.3682ZM116.158 124.157C116.389 125.272 116.376 126.273 116.17 127.21L126.031 129.379C126.56 126.975 126.548 124.535 126.046 122.11L116.158 124.157ZM116.17 127.21C115.936 128.271 115.537 129.189 114.979 130.007L123.32 135.698C124.629 133.779 125.53 131.659 126.031 129.379L116.17 127.21ZM114.882 130.155C114.37 130.964 113.713 131.651 112.867 132.234L118.591 140.552C120.536 139.213 122.159 137.54 123.417 135.55L114.882 130.155ZM112.775 132.298C111.984 132.869 111.087 133.268 110.029 133.487L112.077 143.375C114.479 142.877 116.699 141.917 118.682 140.487L112.775 132.298ZM110.029 133.487C108.914 133.718 107.914 133.705 106.976 133.499L104.808 143.36C107.211 143.889 109.651 143.877 112.077 143.375L110.029 133.487ZM106.867 133.476C105.842 133.274 104.918 132.896 104.058 132.332L98.5144 140.771C100.472 142.056 102.618 142.931 104.917 143.383L106.867 133.476ZM104.058 132.332C103.239 131.793 102.5 131.091 101.841 130.177L93.6512 136.084C94.9931 137.944 96.6142 139.522 98.5144 140.771L104.058 132.332ZM101.905 130.269C101.351 129.464 100.939 128.514 100.699 127.358L90.8119 129.406C91.3057 131.79 92.22 134.006 93.5869 135.992L101.905 130.269ZM100.699 127.358C100.472 126.259 100.463 125.206 100.659 124.163L90.7342 122.304C90.292 124.666 90.3232 127.045 90.8119 129.406L100.699 127.358ZM100.637 124.271C100.876 123.132 101.273 122.193 101.795 121.4L93.3554 115.856C92.0902 117.782 91.2347 119.914 90.7556 122.196L100.637 124.271ZM101.795 121.4C102.377 120.514 103.101 119.755 103.997 119.109L98.0902 110.92C96.2114 112.275 94.6236 113.925 93.3554 115.856L101.795 121.4ZM103.997 119.109C104.775 118.548 105.688 118.139 106.803 117.908L104.756 108.02C102.33 108.523 100.086 109.48 98.0902 110.92L103.997 119.109ZM106.803 117.908C107.861 117.689 108.842 117.699 109.796 117.908L111.965 108.047C109.577 107.522 107.158 107.523 104.756 108.02L106.803 117.908ZM109.796 117.908C110.857 118.142 111.775 118.541 112.593 119.099L118.283 110.759C116.365 109.45 114.244 108.548 111.965 108.047L109.796 117.908ZM112.741 119.197C113.551 119.709 114.28 120.394 114.928 121.311L123.174 115.484C121.805 113.546 120.125 111.919 118.135 110.661L112.741 119.197ZM114.928 121.311C115.532 122.166 115.939 123.1 116.158 124.157L126.046 122.11C125.548 119.708 124.588 117.484 123.174 115.484L114.928 121.311Z" fill="black" mask="url(#path-14-outside-1_1_45)"/>
<mask id="path-16-outside-2_1_45" maskUnits="userSpaceOnUse" x="4.32398" y="67.3709" width="99.8508" height="103.877" fill="black">
<rect fill="white" x="4.32398" y="67.3709" width="99.8508" height="103.877"/>
<path d="M66.1882 128.085L53.1572 138.436C50.8132 135.855 49.1605 133.458 48.1993 131.245C47.2176 129.007 46.6582 126.957 46.5211 125.095C46.3893 123.188 46.5414 121.453 46.9774 119.891C47.4187 118.283 47.9133 116.821 48.4613 115.506C49.0145 114.144 49.4596 112.91 49.7966 111.804C50.1594 110.677 50.1758 109.616 49.8461 108.621C49.6585 108.015 49.2914 107.447 48.7447 106.917C48.1776 106.362 47.4483 105.998 46.5569 105.826C45.6912 105.633 44.6657 105.714 43.4803 106.069C42.3002 106.377 41.0033 107.093 39.5897 108.216C38.6644 108.951 37.6307 109.919 36.4885 111.12C35.3516 112.274 34.2321 113.583 33.13 115.045C32.0075 116.482 30.9693 117.998 30.0154 119.594C29.0668 121.144 28.308 122.669 27.7389 124.169L14.0376 110.404C14.5394 109.083 15.1467 107.657 15.8594 106.127C16.5774 104.551 17.4723 102.959 18.5442 101.354C19.5956 99.7219 20.8469 98.0781 22.2983 96.4221C23.7496 94.7662 25.452 93.1624 27.4053 91.6108C30.5667 89.0995 33.8952 87.1682 37.3909 85.8166C40.9124 84.4447 44.4006 83.7698 47.8557 83.792C51.3107 83.8142 54.6453 84.5818 57.8594 86.0949C61.0531 87.5823 63.926 89.9324 66.4781 93.1452C68.4177 95.5869 69.6325 97.8288 70.1227 99.8707C70.5925 101.887 70.6654 103.799 70.3413 105.608C70.0172 107.416 69.4421 109.173 68.616 110.877C67.7899 112.581 67.0406 114.329 66.368 116.121C65.7006 117.867 65.2662 119.721 65.0646 121.684C64.8887 123.626 65.2633 125.76 66.1882 128.085ZM76.2009 136.732C77.0992 137.863 77.7178 139.09 78.0567 140.414C78.3956 141.738 78.4782 143.056 78.3045 144.367C78.1769 145.684 77.7881 146.936 77.1381 148.123C76.5085 149.336 75.6411 150.382 74.5359 151.26C73.405 152.158 72.1777 152.776 70.8539 153.115C69.5506 153.48 68.2302 153.586 66.8927 153.432C65.6014 153.284 64.3493 152.896 63.1366 152.266C61.9495 151.616 60.9068 150.725 60.0085 149.595C59.1306 148.489 58.4991 147.272 58.1141 145.943C57.7548 144.594 57.6491 143.273 57.7971 141.982C57.9504 140.645 58.3419 139.369 58.9715 138.157C59.6011 136.944 60.4813 135.888 61.6122 134.99C62.7174 134.112 63.9319 133.504 65.2556 133.165C66.5794 132.826 67.8972 132.743 69.2089 132.917C70.5259 133.045 71.801 133.436 73.0342 134.091C74.2674 134.747 75.3229 135.627 76.2009 136.732Z"/>
</mask>
<path d="M66.1882 128.085L53.1572 138.436C50.8132 135.855 49.1605 133.458 48.1993 131.245C47.2176 129.007 46.6582 126.957 46.5211 125.095C46.3893 123.188 46.5414 121.453 46.9774 119.891C47.4187 118.283 47.9133 116.821 48.4613 115.506C49.0145 114.144 49.4596 112.91 49.7966 111.804C50.1594 110.677 50.1758 109.616 49.8461 108.621C49.6585 108.015 49.2914 107.447 48.7447 106.917C48.1776 106.362 47.4483 105.998 46.5569 105.826C45.6912 105.633 44.6657 105.714 43.4803 106.069C42.3002 106.377 41.0033 107.093 39.5897 108.216C38.6644 108.951 37.6307 109.919 36.4885 111.12C35.3516 112.274 34.2321 113.583 33.13 115.045C32.0075 116.482 30.9693 117.998 30.0154 119.594C29.0668 121.144 28.308 122.669 27.7389 124.169L14.0376 110.404C14.5394 109.083 15.1467 107.657 15.8594 106.127C16.5774 104.551 17.4723 102.959 18.5442 101.354C19.5956 99.7219 20.8469 98.0781 22.2983 96.4221C23.7496 94.7662 25.452 93.1624 27.4053 91.6108C30.5667 89.0995 33.8952 87.1682 37.3909 85.8166C40.9124 84.4447 44.4006 83.7698 47.8557 83.792C51.3107 83.8142 54.6453 84.5818 57.8594 86.0949C61.0531 87.5823 63.926 89.9324 66.4781 93.1452C68.4177 95.5869 69.6325 97.8288 70.1227 99.8707C70.5925 101.887 70.6654 103.799 70.3413 105.608C70.0172 107.416 69.4421 109.173 68.616 110.877C67.7899 112.581 67.0406 114.329 66.368 116.121C65.7006 117.867 65.2662 119.721 65.0646 121.684C64.8887 123.626 65.2633 125.76 66.1882 128.085ZM76.2009 136.732C77.0992 137.863 77.7178 139.09 78.0567 140.414C78.3956 141.738 78.4782 143.056 78.3045 144.367C78.1769 145.684 77.7881 146.936 77.1381 148.123C76.5085 149.336 75.6411 150.382 74.5359 151.26C73.405 152.158 72.1777 152.776 70.8539 153.115C69.5506 153.48 68.2302 153.586 66.8927 153.432C65.6014 153.284 64.3493 152.896 63.1366 152.266C61.9495 151.616 60.9068 150.725 60.0085 149.595C59.1306 148.489 58.4991 147.272 58.1141 145.943C57.7548 144.594 57.6491 143.273 57.7971 141.982C57.9504 140.645 58.3419 139.369 58.9715 138.157C59.6011 136.944 60.4813 135.888 61.6122 134.99C62.7174 134.112 63.9319 133.504 65.2556 133.165C66.5794 132.826 67.8972 132.743 69.2089 132.917C70.5259 133.045 71.801 133.436 73.0342 134.091C74.2674 134.747 75.3229 135.627 76.2009 136.732Z" fill="#FF1818"/>
<path d="M66.1882 128.085L68.697 131.244C70.0903 130.137 70.5937 128.248 69.9361 126.595L66.1882 128.085ZM53.1572 138.436L50.1711 141.148C51.5993 142.721 54.0025 142.916 55.666 141.595L53.1572 138.436ZM48.1993 131.245L51.8988 129.638L51.8932 129.625L48.1993 131.245ZM46.5211 125.095L42.4973 125.373C42.4977 125.38 42.4981 125.386 42.4986 125.392L46.5211 125.095ZM46.9774 119.891L50.8624 120.976C50.8639 120.97 50.8655 120.964 50.8671 120.959L46.9774 119.891ZM48.4613 115.506L52.1847 117.056C52.1892 117.046 52.1937 117.035 52.1981 117.024L48.4613 115.506ZM49.7966 111.804L45.9573 110.568C45.9508 110.588 45.9445 110.608 45.9383 110.628L49.7966 111.804ZM49.8461 108.621L45.9932 109.814C46.001 109.839 46.009 109.864 46.0172 109.889L49.8461 108.621ZM48.7447 106.917L45.922 109.799C45.9271 109.804 45.9322 109.809 45.9374 109.814L48.7447 106.917ZM46.5569 105.826L45.6807 109.763C45.7176 109.771 45.7546 109.779 45.7917 109.786L46.5569 105.826ZM43.4803 106.069L44.5008 109.971C44.5463 109.959 44.5916 109.946 44.6367 109.933L43.4803 106.069ZM36.4885 111.12L39.3625 113.95C39.3788 113.933 39.3949 113.916 39.4109 113.9L36.4885 111.12ZM33.13 115.045L36.3083 117.528C36.3227 117.51 36.337 117.491 36.3511 117.473L33.13 115.045ZM30.0154 119.594L33.4557 121.7C33.4631 121.688 33.4704 121.675 33.4777 121.663L30.0154 119.594ZM27.7389 124.169L24.8802 127.015C25.8468 127.986 27.2405 128.4 28.5806 128.114C29.9208 127.828 31.024 126.881 31.5101 125.6L27.7389 124.169ZM14.0376 110.404L10.2671 108.971C9.70434 110.453 10.061 112.126 11.1789 113.249L14.0376 110.404ZM15.8594 106.127L19.5158 107.83C19.5206 107.82 19.5253 107.809 19.5301 107.799L15.8594 106.127ZM18.5442 101.354L21.8991 103.593C21.9111 103.575 21.9229 103.556 21.9347 103.538L18.5442 101.354ZM37.3909 85.8166L38.8455 89.5787L38.8552 89.5749L37.3909 85.8166ZM57.8594 86.0949L56.1414 89.7442C56.1465 89.7466 56.1515 89.7489 56.1565 89.7513L57.8594 86.0949ZM70.1227 99.8707L74.051 98.9555C74.0489 98.9467 74.0469 98.9379 74.0448 98.9292L70.1227 99.8707ZM66.368 116.121L70.1356 117.561C70.1384 117.554 70.1413 117.546 70.1442 117.538L66.368 116.121ZM65.0646 121.684L61.0523 121.272C61.0506 121.288 61.0491 121.304 61.0476 121.32L65.0646 121.684ZM78.3045 144.367L74.3059 143.838C74.2997 143.885 74.2944 143.931 74.2898 143.978L78.3045 144.367ZM77.1381 148.123L73.6003 146.186C73.586 146.212 73.572 146.239 73.5583 146.265L77.1381 148.123ZM70.8539 153.115L69.8536 149.208C69.8247 149.215 69.796 149.223 69.7673 149.231L70.8539 153.115ZM66.8927 153.432L67.352 149.425L66.8927 153.432ZM63.1366 152.266L61.1993 155.804C61.2255 155.818 61.2517 155.832 61.2781 155.846L63.1366 152.266ZM58.1141 145.943L54.2164 146.981C54.224 147.009 54.2318 147.037 54.2399 147.065L58.1141 145.943ZM57.7971 141.982L61.8044 142.441L57.7971 141.982ZM58.9715 138.157L55.3917 136.298L58.9715 138.157ZM65.2556 133.165L64.2553 129.257L65.2556 133.165ZM69.2089 132.917L68.6794 136.916C68.7262 136.922 68.773 136.927 68.82 136.932L69.2089 132.917ZM63.6794 124.927L50.6484 135.278L55.666 141.595L68.697 131.244L63.6794 124.927ZM56.1433 135.725C53.9756 133.338 52.6248 131.309 51.8988 129.638L44.4998 132.852C45.6962 135.606 47.6507 138.372 50.1711 141.148L56.1433 135.725ZM51.8932 129.625C51.0416 127.683 50.6386 126.087 50.5437 124.799L42.4986 125.392C42.6779 127.826 43.3936 130.33 44.5054 132.865L51.8932 129.625ZM50.545 124.817C50.4393 123.288 50.5699 122.023 50.8624 120.976L43.0925 118.807C42.5129 120.883 42.3393 123.087 42.4973 125.373L50.545 124.817ZM50.8671 120.959C51.2706 119.488 51.7122 118.191 52.1847 117.056L44.7378 113.955C44.1144 115.452 43.5668 117.078 43.0877 118.824L50.8671 120.959ZM52.1981 117.024C52.7854 115.578 53.2747 114.228 53.655 112.979L45.9383 110.628C45.6445 111.592 45.2436 112.71 44.7244 113.987L52.1981 117.024ZM53.636 113.04C54.2259 111.208 54.3079 109.263 53.675 107.352L46.0172 109.889C46.0438 109.969 46.0929 110.147 45.9573 110.568L53.636 113.04ZM53.6989 107.427C53.2745 106.057 52.4872 104.928 51.5519 104.021L45.9374 109.814C46.0185 109.892 46.0447 109.933 46.0431 109.931C46.0422 109.929 46.0351 109.918 46.0253 109.897C46.0153 109.876 46.0039 109.848 45.9932 109.814L53.6989 107.427ZM51.5674 104.036C50.3571 102.85 48.8756 102.166 47.3222 101.865L45.7917 109.786C45.9181 109.81 45.9693 109.836 45.9714 109.837C45.973 109.838 45.9666 109.834 45.9554 109.826C45.944 109.818 45.9323 109.809 45.922 109.799L51.5674 104.036ZM47.4332 101.888C45.681 101.499 43.922 101.726 42.3239 102.205L44.6367 109.933C45.4094 109.702 45.7014 109.767 45.6807 109.763L47.4332 101.888ZM42.4598 102.167C40.5415 102.668 38.7411 103.739 37.0809 105.058L42.0985 111.374C43.2655 110.447 44.0589 110.087 44.5008 109.971L42.4598 102.167ZM37.0809 105.058C35.964 105.945 34.7902 107.053 33.566 108.34L39.4109 113.9C40.4712 112.785 41.3648 111.957 42.0985 111.374L37.0809 105.058ZM33.6144 108.29C32.3383 109.586 31.1042 111.031 29.9089 112.617L36.3511 117.473C37.3599 116.134 38.3648 114.963 39.3625 113.95L33.6144 108.29ZM29.9517 112.562C28.724 114.133 27.5913 115.788 26.5531 117.525L33.4777 121.663C34.3473 120.208 35.291 118.83 36.3083 117.528L29.9517 112.562ZM26.5751 117.489C25.5124 119.225 24.6366 120.975 23.9677 122.739L31.5101 125.6C31.9793 124.363 32.6213 123.063 33.4557 121.7L26.5751 117.489ZM30.5976 121.324L16.8963 107.558L11.1789 113.249L24.8802 127.015L30.5976 121.324ZM17.8081 111.836C18.2693 110.623 18.8367 109.288 19.5158 107.83L12.2031 104.424C11.4567 106.027 10.8096 107.544 10.2671 108.971L17.8081 111.836ZM19.5301 107.799C20.1487 106.441 20.9341 105.038 21.8991 103.593L15.1893 99.1145C14.0106 100.881 13.0061 102.661 12.1888 104.455L19.5301 107.799ZM21.9347 103.538C22.8657 102.093 23.9938 100.607 25.3316 99.0807L19.265 93.7636C17.7001 95.549 16.3255 97.3502 15.1536 99.1688L21.9347 103.538ZM25.3316 99.0807C26.6041 97.6289 28.1257 96.1897 29.9141 94.7691L24.8966 88.4525C22.7782 90.1352 20.8952 91.9036 19.265 93.7636L25.3316 99.0807ZM29.9141 94.7691C32.7812 92.4916 35.7579 90.7724 38.8455 89.5787L35.9364 82.0546C32.0326 83.5639 28.3523 85.7074 24.8966 88.4525L29.9141 94.7691ZM38.8552 89.5749C41.9464 88.3706 44.9302 87.8067 47.8298 87.8254L47.8816 79.7586C43.871 79.7329 39.8783 80.5188 35.9267 82.0583L38.8552 89.5749ZM47.8298 87.8254C50.6829 87.8437 53.4415 88.4731 56.1414 89.7442L59.5774 82.4456C55.8492 80.6905 51.9386 79.7847 47.8816 79.7586L47.8298 87.8254ZM56.1565 89.7513C58.6961 90.934 61.0932 92.8509 63.3198 95.654L69.6364 90.6364C66.7589 87.014 63.4101 84.2306 59.5623 82.4386L56.1565 89.7513ZM63.3198 95.654C65.0558 97.8395 65.8979 99.5507 66.2007 100.812L74.0448 98.9292C73.3672 96.1068 71.7795 93.3343 69.6364 90.6364L63.3198 95.654ZM66.1945 100.786C66.5557 102.336 66.587 103.692 66.3711 104.896L74.3115 106.319C74.7438 103.907 74.6294 101.438 74.051 98.9555L66.1945 100.786ZM66.3711 104.896C66.1141 106.331 65.6566 107.735 64.9865 109.118L72.2456 112.636C73.2276 110.61 73.9204 108.502 74.3115 106.319L66.3711 104.896ZM64.9865 109.118C64.1057 110.935 63.3075 112.797 62.5918 114.704L70.1442 117.538C70.7736 115.862 71.4741 114.228 72.2456 112.636L64.9865 109.118ZM62.6004 114.681C61.7999 116.775 61.288 118.977 61.0523 121.272L69.077 122.096C69.2444 120.466 69.6014 118.959 70.1356 117.561L62.6004 114.681ZM61.0476 121.32C60.8007 124.046 61.3456 126.824 62.4404 129.576L69.9361 126.595C69.1809 124.696 68.9767 123.206 69.0816 122.047L61.0476 121.32ZM73.0426 139.241C73.6083 139.953 73.9591 140.672 74.1492 141.414L81.9641 139.414C81.4765 137.509 80.5901 135.773 79.3591 134.223L73.0426 139.241ZM74.1492 141.414C74.3645 142.255 74.4097 143.054 74.3059 143.838L82.303 144.897C82.5466 143.057 82.4266 141.22 81.9641 139.414L74.1492 141.414ZM74.2898 143.978C74.2161 144.74 73.9944 145.467 73.6003 146.186L80.6759 150.061C81.5818 148.406 82.1377 146.629 82.3191 144.756L74.2898 143.978ZM73.5583 146.265C73.1989 146.957 72.7028 147.564 72.0271 148.101L77.0447 154.418C78.5794 153.199 79.818 151.715 80.7179 149.982L73.5583 146.265ZM72.0271 148.101C71.3149 148.667 70.5963 149.018 69.8536 149.208L71.8542 157.023C73.759 156.535 75.4951 155.649 77.0447 154.418L72.0271 148.101ZM69.7673 149.231C68.9637 149.456 68.1682 149.519 67.352 149.425L66.4335 157.44C68.2921 157.653 70.1374 157.504 71.9405 157L69.7673 149.231ZM67.352 149.425C66.5739 149.336 65.794 149.101 64.995 148.686L61.2781 155.846C62.9047 156.69 64.6288 157.233 66.4335 157.44L67.352 149.425ZM65.0738 148.728C64.3893 148.353 63.7535 147.824 63.1668 147.086L56.8502 152.103C58.0602 153.627 59.5097 154.878 61.1993 155.804L65.0738 148.728ZM63.1668 147.086C62.6088 146.383 62.2242 145.635 61.9883 144.821L54.2399 147.065C54.774 148.909 55.6524 150.595 56.8502 152.103L63.1668 147.086ZM62.0118 144.905C61.7726 144.007 61.718 143.195 61.8044 142.441L53.7899 141.523C53.5803 143.352 53.737 145.18 54.2164 146.981L62.0118 144.905ZM61.8044 142.441C61.9008 141.6 62.1448 140.798 62.5513 140.015L55.3917 136.298C54.539 137.941 54 139.689 53.7899 141.523L61.8044 142.441ZM62.5513 140.015C62.9045 139.335 63.4088 138.714 64.121 138.148L59.1034 131.832C57.5538 133.063 56.2976 134.553 55.3917 136.298L62.5513 140.015ZM64.121 138.148C64.7967 137.612 65.5004 137.266 66.256 137.072L64.2553 129.257C62.3633 129.742 60.6381 130.613 59.1034 131.832L64.121 138.148ZM66.256 137.072C67.097 136.857 67.8955 136.812 68.6794 136.916L69.7384 128.918C67.8988 128.675 66.0619 128.795 64.2553 129.257L66.256 137.072ZM68.82 136.932C69.5821 137.006 70.3488 137.232 71.1415 137.653L74.9269 130.53C73.2532 129.64 71.4697 129.084 69.5978 128.902L68.82 136.932ZM71.1415 137.653C71.8795 138.045 72.5058 138.565 73.0426 139.241L79.3591 134.223C78.1401 132.689 76.6553 131.448 74.9269 130.53L71.1415 137.653Z" fill="black" mask="url(#path-16-outside-2_1_45)"/>
<mask id="path-18-outside-3_1_45" maskUnits="userSpaceOnUse" x="125.182" y="51.1905" width="80.2798" height="97.8075" fill="black">
<rect fill="white" x="125.182" y="51.1905" width="80.2798" height="97.8075"/>
<path d="M165.306 114.912L149.253 110.526C149.948 107.109 150.904 104.359 152.12 102.275C153.344 100.159 154.666 98.4959 156.086 97.2845C157.546 96.0501 159.035 95.1468 160.552 94.5745C162.11 93.9793 163.581 93.5136 164.966 93.1773C166.391 92.8181 167.65 92.4473 168.741 92.0649C169.864 91.6911 170.729 91.0768 171.337 90.2221C171.714 89.7127 171.955 89.0809 172.059 88.3266C172.172 87.5407 172.034 86.7375 171.646 85.9168C171.289 85.1048 170.617 84.3258 169.63 83.5797C168.683 82.8106 167.339 82.1882 165.597 81.7124C164.457 81.401 163.066 81.1399 161.422 80.929C159.818 80.6951 158.101 80.5662 156.27 80.5424C154.448 80.4869 152.611 80.5466 150.76 80.7214C148.949 80.8732 147.271 81.1632 145.724 81.5915L148.721 62.4021C150.083 62.0256 151.592 61.6722 153.247 61.3418C154.943 60.9884 156.755 60.769 158.684 60.6835C160.622 60.5663 162.687 60.6032 164.881 60.7941C167.075 60.9851 169.375 61.4093 171.781 62.0668C175.676 63.1308 179.202 64.6725 182.359 66.692C185.548 68.7201 188.155 71.1338 190.181 73.9329C192.206 76.7321 193.559 79.875 194.24 83.3616C194.93 86.8166 194.734 90.5231 193.652 94.4811C192.83 97.4891 191.741 99.7946 190.385 101.398C189.037 102.969 187.538 104.159 185.888 104.967C184.238 105.775 182.481 106.35 180.619 106.692C178.756 107.034 176.903 107.463 175.06 107.981C173.258 108.475 171.506 109.221 169.804 110.22C168.134 111.226 166.635 112.79 165.306 114.912ZM164.256 128.099C163.875 129.493 163.251 130.717 162.384 131.773C161.517 132.83 160.504 133.676 159.343 134.311C158.206 134.987 156.966 135.414 155.624 135.592C154.274 135.802 152.918 135.721 151.557 135.349C150.163 134.968 148.939 134.344 147.883 133.477C146.818 132.642 145.952 131.64 145.284 130.47C144.64 129.342 144.213 128.102 144.003 126.752C143.825 125.41 143.927 124.043 144.307 122.65C144.679 121.288 145.287 120.059 146.131 118.962C147.007 117.875 148.009 117.009 149.138 116.364C150.307 115.697 151.567 115.258 152.917 115.049C154.267 114.839 155.639 114.925 157.032 115.305C158.394 115.677 159.603 116.297 160.659 117.164C161.715 118.031 162.561 119.045 163.197 120.205C163.873 121.342 164.311 122.602 164.512 123.984C164.713 125.366 164.628 126.738 164.256 128.099Z"/>
</mask>
<path d="M165.306 114.912L149.253 110.526C149.948 107.109 150.904 104.359 152.12 102.275C153.344 100.159 154.666 98.4959 156.086 97.2845C157.546 96.0501 159.035 95.1468 160.552 94.5745C162.11 93.9793 163.581 93.5136 164.966 93.1773C166.391 92.8181 167.65 92.4473 168.741 92.0649C169.864 91.6911 170.729 91.0768 171.337 90.2221C171.714 89.7127 171.955 89.0809 172.059 88.3266C172.172 87.5407 172.034 86.7375 171.646 85.9168C171.289 85.1048 170.617 84.3258 169.63 83.5797C168.683 82.8106 167.339 82.1882 165.597 81.7124C164.457 81.401 163.066 81.1399 161.422 80.929C159.818 80.6951 158.101 80.5662 156.27 80.5424C154.448 80.4869 152.611 80.5466 150.76 80.7214C148.949 80.8732 147.271 81.1632 145.724 81.5915L148.721 62.4021C150.083 62.0256 151.592 61.6722 153.247 61.3418C154.943 60.9884 156.755 60.769 158.684 60.6835C160.622 60.5663 162.687 60.6032 164.881 60.7941C167.075 60.9851 169.375 61.4093 171.781 62.0668C175.676 63.1308 179.202 64.6725 182.359 66.692C185.548 68.7201 188.155 71.1338 190.181 73.9329C192.206 76.7321 193.559 79.875 194.24 83.3616C194.93 86.8166 194.734 90.5231 193.652 94.4811C192.83 97.4891 191.741 99.7946 190.385 101.398C189.037 102.969 187.538 104.159 185.888 104.967C184.238 105.775 182.481 106.35 180.619 106.692C178.756 107.034 176.903 107.463 175.06 107.981C173.258 108.475 171.506 109.221 169.804 110.22C168.134 111.226 166.635 112.79 165.306 114.912ZM164.256 128.099C163.875 129.493 163.251 130.717 162.384 131.773C161.517 132.83 160.504 133.676 159.343 134.311C158.206 134.987 156.966 135.414 155.624 135.592C154.274 135.802 152.918 135.721 151.557 135.349C150.163 134.968 148.939 134.344 147.883 133.477C146.818 132.642 145.952 131.64 145.284 130.47C144.64 129.342 144.213 128.102 144.003 126.752C143.825 125.41 143.927 124.043 144.307 122.65C144.679 121.288 145.287 120.059 146.131 118.962C147.007 117.875 148.009 117.009 149.138 116.364C150.307 115.697 151.567 115.258 152.917 115.049C154.267 114.839 155.639 114.925 157.032 115.305C158.394 115.677 159.603 116.297 160.659 117.164C161.715 118.031 162.561 119.045 163.197 120.205C163.873 121.342 164.311 122.602 164.512 123.984C164.713 125.366 164.628 126.738 164.256 128.099Z" fill="#FF1818"/>
<path d="M165.306 114.912L164.244 118.802C165.96 119.271 167.781 118.56 168.725 117.052L165.306 114.912ZM149.253 110.526L145.3 109.722C144.877 111.803 146.141 113.857 148.19 114.417L149.253 110.526ZM152.12 102.275L155.603 104.307L155.61 104.295L152.12 102.275ZM156.086 97.2845L153.482 94.2043C153.477 94.2082 153.473 94.2121 153.468 94.2161L156.086 97.2845ZM160.552 94.5745L161.975 98.3486C161.981 98.3465 161.987 98.3444 161.992 98.3423L160.552 94.5745ZM164.966 93.1773L165.918 97.0969C165.929 97.0942 165.941 97.0913 165.952 97.0885L164.966 93.1773ZM168.741 92.0649L167.467 88.2378C167.447 88.2445 167.427 88.2514 167.407 88.2584L168.741 92.0649ZM171.337 90.2221L168.096 87.8211C168.08 87.8421 168.065 87.8633 168.05 87.8846L171.337 90.2221ZM172.059 88.3266L168.066 87.7545C168.065 87.7616 168.064 87.7687 168.063 87.7758L172.059 88.3266ZM171.646 85.9168L167.953 87.5388C167.968 87.5734 167.983 87.6077 168 87.6419L171.646 85.9168ZM169.63 83.5797L167.087 86.7105C167.123 86.7401 167.16 86.7692 167.198 86.7975L169.63 83.5797ZM161.422 80.929L160.84 84.9202C160.863 84.9236 160.886 84.9267 160.909 84.9297L161.422 80.929ZM156.27 80.5424L156.148 84.574C156.171 84.5747 156.194 84.5752 156.218 84.5755L156.27 80.5424ZM150.76 80.7214L151.097 84.7407C151.111 84.7396 151.125 84.7383 151.139 84.737L150.76 80.7214ZM145.724 81.5915L141.739 80.9691C141.528 82.323 142.018 83.6917 143.041 84.6032C144.065 85.5147 145.481 85.8444 146.801 85.4786L145.724 81.5915ZM148.721 62.4021L147.646 58.5145C146.119 58.9368 144.98 60.2142 144.736 61.7798L148.721 62.4021ZM153.247 61.3418L154.037 65.2973C154.048 65.2951 154.059 65.2928 154.07 65.2905L153.247 61.3418ZM158.684 60.6835L158.863 64.713C158.885 64.712 158.906 64.7109 158.928 64.7096L158.684 60.6835ZM182.359 66.692L180.186 70.0898L180.194 70.0954L182.359 66.692ZM194.24 83.3616L190.281 84.1346C190.282 84.14 190.284 84.1455 190.285 84.1509L194.24 83.3616ZM190.385 101.398L193.446 104.024C193.452 104.017 193.458 104.01 193.463 104.003L190.385 101.398ZM175.06 107.981L176.127 111.87C176.135 111.868 176.143 111.866 176.151 111.864L175.06 107.981ZM169.804 110.22L167.763 106.74C167.749 106.749 167.735 106.757 167.721 106.765L169.804 110.22ZM159.343 134.311L157.405 130.774C157.364 130.797 157.323 130.82 157.282 130.844L159.343 134.311ZM155.624 135.592L155.094 131.594C155.065 131.598 155.035 131.602 155.006 131.606L155.624 135.592ZM147.883 133.477L150.442 130.36C150.419 130.341 150.396 130.322 150.372 130.304L147.883 133.477ZM145.284 130.47L148.787 128.471L145.284 130.47ZM144.003 126.752L140.005 127.282C140.009 127.312 140.013 127.341 140.018 127.37L144.003 126.752ZM146.131 118.962L142.989 116.433C142.971 116.456 142.953 116.479 142.935 116.502L146.131 118.962ZM149.138 116.364L151.138 119.867L149.138 116.364ZM152.917 115.049L152.299 111.063L152.917 115.049ZM160.659 117.164L163.218 114.046L160.659 117.164ZM163.197 120.205L159.659 122.143C159.682 122.184 159.705 122.225 159.73 122.266L163.197 120.205ZM166.369 111.021L150.316 106.635L148.19 114.417L164.244 118.802L166.369 111.021ZM153.205 111.33C153.848 108.17 154.685 105.881 155.603 104.307L148.636 100.242C147.122 102.836 146.048 106.048 145.3 109.722L153.205 111.33ZM155.61 104.295C156.673 102.46 157.721 101.191 158.704 100.353L153.468 94.2161C151.611 95.8006 150.015 97.8583 148.629 100.254L155.61 104.295ZM158.69 100.365C159.86 99.3753 160.958 98.7324 161.975 98.3486L159.129 90.8005C157.112 91.5611 155.232 92.7249 153.482 94.2043L158.69 100.365ZM161.992 98.3423C163.416 97.798 164.724 97.3868 165.918 97.0969L164.015 89.2577C162.439 89.6403 160.804 90.1606 159.113 90.8068L161.992 98.3423ZM165.952 97.0885C167.465 96.7071 168.843 96.3029 170.075 95.8713L167.407 88.2584C166.456 88.5917 165.318 88.9291 163.98 89.2662L165.952 97.0885ZM170.015 95.8919C171.841 95.284 173.458 94.1999 174.624 92.5595L168.05 87.8846C168.001 87.9537 167.887 88.0981 167.467 88.2378L170.015 95.8919ZM174.578 92.623C175.432 91.4706 175.877 90.1677 176.055 88.8774L168.063 87.7758C168.048 87.8877 168.03 87.9331 168.031 87.9304C168.032 87.9289 168.037 87.9166 168.048 87.8963C168.059 87.8758 168.075 87.85 168.096 87.8211L174.578 92.623ZM176.052 88.8988C176.292 87.2215 175.968 85.6219 175.291 84.1917L168 87.6419C168.055 87.7583 168.064 87.8147 168.065 87.8169C168.065 87.8187 168.064 87.8118 168.064 87.7979C168.063 87.784 168.064 87.7689 168.066 87.7545L176.052 88.8988ZM175.338 84.2949C174.617 82.6514 173.393 81.3677 172.062 80.3619L167.198 86.7975C167.841 87.2839 167.961 87.5582 167.953 87.5388L175.338 84.2949ZM172.173 80.449C170.634 79.1988 168.706 78.3803 166.66 77.8216L164.534 85.6033C165.972 85.9961 166.732 86.4225 167.087 86.7105L172.173 80.449ZM166.66 77.8216C165.284 77.4457 163.697 77.1543 161.935 76.9283L160.909 84.9297C162.434 85.1254 163.631 85.3564 164.534 85.6033L166.66 77.8216ZM162.004 76.9378C160.204 76.6753 158.309 76.5352 156.323 76.5093L156.218 84.5755C157.894 84.5973 159.433 84.715 160.84 84.9202L162.004 76.9378ZM156.393 76.5108C154.4 76.4501 152.396 76.5155 150.381 76.7058L151.139 84.737C152.827 84.5776 154.496 84.5237 156.148 84.574L156.393 76.5108ZM150.423 76.702C148.394 76.8721 146.465 77.201 144.648 77.7044L146.801 85.4786C148.076 85.1254 149.504 84.8743 151.097 84.7407L150.423 76.702ZM149.71 82.2138L152.706 63.0245L144.736 61.7798L141.739 80.9691L149.71 82.2138ZM149.796 66.2897C151.048 65.9437 152.459 65.612 154.037 65.2973L152.458 57.3863C150.724 57.7323 149.119 58.1075 147.646 58.5145L149.796 66.2897ZM154.07 65.2905C155.531 64.986 157.126 64.79 158.863 64.713L158.506 56.654C156.384 56.748 154.355 56.9909 152.424 57.3932L154.07 65.2905ZM158.928 64.7096C160.643 64.6058 162.509 64.6364 164.531 64.8124L165.231 56.7759C162.866 56.57 160.6 56.5268 158.441 56.6574L158.928 64.7096ZM164.531 64.8124C166.455 64.9798 168.515 65.3557 170.718 65.9576L172.844 58.1759C170.234 57.4629 167.695 56.9904 165.231 56.7759L164.531 64.8124ZM170.718 65.9576C174.25 66.9226 177.397 68.3061 180.186 70.0898L184.532 63.2942C181.007 61.0389 177.101 59.339 172.844 58.1759L170.718 65.9576ZM180.194 70.0954C182.994 71.8758 185.213 73.9483 186.913 76.2975L193.448 71.5684C191.097 68.3192 188.102 65.5644 184.524 63.2885L180.194 70.0954ZM186.913 76.2975C188.586 78.609 189.71 81.2057 190.281 84.1346L198.199 82.5887C197.409 78.5443 195.827 74.8552 193.448 71.5684L186.913 76.2975ZM190.285 84.1509C190.833 86.8982 190.705 89.9648 189.761 93.4181L197.543 95.544C198.762 91.0813 199.026 86.7349 198.196 82.5723L190.285 84.1509ZM189.761 93.4181C189.026 96.1105 188.144 97.8016 187.306 98.7919L193.463 104.003C195.339 101.788 196.635 98.8677 197.543 95.544L189.761 93.4181ZM187.323 98.7713C186.287 99.9793 185.212 100.806 184.113 101.345L187.662 108.589C189.863 107.511 191.786 105.958 193.446 104.024L187.323 98.7713ZM184.113 101.345C182.805 101.986 181.402 102.447 179.891 102.725L181.346 110.659C183.561 110.253 185.671 109.565 187.662 108.589L184.113 101.345ZM179.891 102.725C177.905 103.089 175.931 103.547 173.97 104.097L176.151 111.864C177.875 111.38 179.607 110.978 181.346 110.659L179.891 102.725ZM173.993 104.091C171.831 104.684 169.753 105.573 167.763 106.74L171.845 113.699C173.258 112.87 174.684 112.266 176.127 111.87L173.993 104.091ZM167.721 106.765C165.377 108.178 163.46 110.261 161.888 112.771L168.725 117.052C169.809 115.32 170.89 114.274 171.886 113.674L167.721 106.765ZM160.365 127.036C160.125 127.914 159.753 128.622 159.267 129.214L165.502 134.333C166.749 132.813 167.625 131.071 168.147 129.162L160.365 127.036ZM159.267 129.214C158.716 129.885 158.099 130.394 157.405 130.774L161.281 137.849C162.908 136.957 164.319 135.774 165.502 134.333L159.267 129.214ZM157.282 130.844C156.625 131.235 155.908 131.486 155.094 131.594L156.155 139.591C158.024 139.343 159.786 138.74 161.404 137.779L157.282 130.844ZM155.006 131.606C154.235 131.726 153.452 131.685 152.62 131.458L150.494 139.239C152.384 139.756 154.313 139.877 156.243 139.578L155.006 131.606ZM152.62 131.458C151.742 131.218 151.034 130.846 150.442 130.36L145.323 136.595C146.843 137.842 148.585 138.718 150.494 139.239L152.62 131.458ZM150.372 130.304C149.716 129.789 149.194 129.184 148.787 128.471L141.781 132.47C142.709 134.095 143.92 135.495 145.393 136.651L150.372 130.304ZM148.787 128.471C148.399 127.791 148.127 127.023 147.989 126.133L140.018 127.37C140.299 129.181 140.881 130.893 141.781 132.47L148.787 128.471ZM148.002 126.222C147.899 125.448 147.95 124.622 148.198 123.713L140.417 121.587C139.904 123.463 139.752 125.372 140.005 127.282L148.002 126.222ZM148.198 123.713C148.435 122.847 148.81 122.095 149.328 121.423L142.935 116.502C141.764 118.023 140.924 119.729 140.417 121.587L148.198 123.713ZM149.273 121.492C149.856 120.768 150.479 120.243 151.138 119.867L147.138 112.861C145.54 113.774 144.158 114.982 142.989 116.433L149.273 121.492ZM151.138 119.867C151.873 119.447 152.664 119.17 153.536 119.034L152.299 111.063C150.47 111.347 148.741 111.946 147.138 112.861L151.138 119.867ZM153.536 119.034C154.293 118.917 155.092 118.956 155.969 119.196L158.095 111.414C156.186 110.893 154.241 110.761 152.299 111.063L153.536 119.034ZM155.969 119.196C156.802 119.424 157.497 119.786 158.1 120.281L163.218 114.046C161.709 112.807 159.986 111.931 158.095 111.414L155.969 119.196ZM158.1 120.281C158.771 120.832 159.279 121.449 159.659 122.143L166.734 118.267C165.843 116.64 164.66 115.229 163.218 114.046L158.1 120.281ZM159.73 122.266C160.121 122.924 160.392 123.676 160.521 124.564L168.504 123.404C168.231 121.528 167.625 119.761 166.664 118.144L159.73 122.266ZM160.521 124.564C160.641 125.391 160.592 126.204 160.365 127.036L168.147 129.162C168.663 127.272 168.785 125.341 168.504 123.404L160.521 124.564Z" fill="black" mask="url(#path-18-outside-3_1_45)"/>
<defs>
<linearGradient id="paint0_linear_1_45" x1="149" y1="80.5" x2="120.5" y2="142" gradientUnits="userSpaceOnUse">
<stop stop-color="#232830"/>
<stop offset="1" stop-color="#716E96"/>
</linearGradient>
<linearGradient id="paint1_linear_1_45" x1="206" y1="71" x2="85" y2="195" gradientUnits="userSpaceOnUse">
<stop stop-color="#802392"/>
<stop offset="1" stop-color="#995FA3"/>
</linearGradient>
</defs>
</svg>
