<svg width="250" height="250" viewBox="0 0 250 250" fill="none" xmlns="http://www.w3.org/2000/svg">
<path fill-rule="evenodd" clip-rule="evenodd" d="M125.244 227.488C68.7763 227.488 23.0001 181.712 23.0001 125.244C23.0001 68.7762 68.7763 23 125.244 23C178.32 23 221.95 63.4415 227 115.191C181.325 143.314 153.405 151.883 128.79 101.604C128.79 75.5995 118.152 60.8244 90.3748 60.8244C66.7345 60.8244 54.3234 77.3725 54.3234 101.604C54.3234 120.516 71.4626 135.882 93.3298 135.882L128.79 161.886C128.79 180.208 136.473 189.073 154.203 189.073C169.57 189.073 180.208 183.754 180.208 168.978L224.755 148.826C214.108 193.925 173.596 227.488 125.244 227.488ZM65.5525 98.0577C65.5525 112.746 77.4596 124.653 92.1478 124.653C106.836 124.653 118.743 112.746 118.743 98.0577C118.743 83.3696 106.836 71.4625 92.1478 71.4625C77.4596 71.4625 65.5525 83.3696 65.5525 98.0577ZM75.0086 98.0577C75.0086 107.523 82.6821 115.197 92.1478 115.197C101.613 115.197 109.287 107.523 109.287 98.0577C109.287 88.592 101.613 80.9186 92.1478 80.9186C82.6821 80.9186 75.0086 88.592 75.0086 98.0577ZM134.7 151.839C138.101 143.725 142.918 141.874 152.43 139.428C157.819 141.838 158.431 143.453 152.43 147.111C144.426 151.077 143.14 152.882 141.792 155.976C139.788 163.061 140.712 166.753 148.293 172.524C154.294 175.981 157.659 174.96 163.659 172.524C168.632 168.411 169.911 169.395 170.752 174.297C166.089 183.563 160.687 183.423 151.511 183.184C151.23 183.177 150.946 183.17 150.657 183.163C141.254 180.974 138.116 177.958 134.7 170.751C132.16 164.136 132.904 159.77 134.7 151.839Z" fill="#C5C3C0"/>
</svg>
