<!DOCTYPE svg PUBLIC "-//W3C//DTD SVG 1.1//EN" "http://www.w3.org/Graphics/SVG/1.1/DTD/svg11.dtd">
<!-- Uploaded to: SVG Repo, www.svgrepo.com, Transformed by: SVG Repo Mixer Tools -->
<svg width="800px" height="800px" viewBox="0 0 36.00 36.00" xmlns="http://www.w3.org/2000/svg" xmlns:xlink="http://www.w3.org/1999/xlink" aria-hidden="true" role="img" class="iconify iconify--twemoji" preserveAspectRatio="xMidYMid meet" fill="#000000" stroke="#000000" stroke-width="0.72">
<g id="SVGRepo_bgCarrier" stroke-width="0"/>
<g id="SVGRepo_tracerCarrier" stroke-linecap="round" stroke-linejoin="round" stroke="#CCCCCC" stroke-width="0.36"/>
<g id="SVGRepo_iconCarrier"> <path fill="#D99E82" d="M2.92 21.393L21.393 2.92A8.264 8.264 0 0 1 33.08 14.607L14.607 33.08A8.264 8.264 0 0 1 2.92 21.393z"> </path> <g fill="#C1694F"> <circle cx="4.389" cy="25.778" r=".972"> </circle> <circle cx="7.306" cy="28.694" r=".972"> </circle> <circle cx="10.222" cy="31.611" r=".972"> </circle> <circle cx="7.306" cy="22.861" r=".972"> </circle> <circle cx="10.222" cy="25.778" r=".972"> </circle> <circle cx="13.139" cy="28.694" r=".972"> </circle> <path d="M21.896 7.189a.972.972 0 1 1 1.93.232a.972.972 0 0 1-1.93-.232z"> </path> <circle cx="25.778" cy="10.222" r=".972"> </circle> <circle cx="28.694" cy="13.139" r=".972"> </circle> <circle cx="25.778" cy="4.389" r=".972"> </circle> <circle cx="28.694" cy="7.306" r=".972"> </circle> <circle cx="31.611" cy="10.222" r=".972"> </circle> </g> <path fill="#EABAA7" d="M6.82 17.514L17.512 6.819L29.18 18.486L18.486 29.18z"> </path> <path fill="#F7DED5" d="M9.799 18.423a.972.972 0 0 1-.687-1.66l7.715-7.715a.972.972 0 1 1 1.375 1.375l-7.715 7.715a.967.967 0 0 1-.688.285z"> </path> </g>
</svg>