<!DOCTYPE svg PUBLIC "-//W3C//DTD SVG 1.1//EN" "http://www.w3.org/Graphics/SVG/1.1/DTD/svg11.dtd">
<!-- Uploaded to: SVG Repo, www.svgrepo.com, Transformed by: SVG Repo Mixer Tools -->
<svg width="800px" height="800px" viewBox="0 0 24 24" enable-background="new 0 0 24 24" version="1.1" xml:space="preserve" xmlns="http://www.w3.org/2000/svg" xmlns:xlink="http://www.w3.org/1999/xlink" fill="#000000" stroke="#000000" stroke-width="0.768">
<g id="SVGRepo_bgCarrier" stroke-width="0"/>
<g id="SVGRepo_tracerCarrier" stroke-linecap="round" stroke-linejoin="round"/>
<g id="SVGRepo_iconCarrier"> <g id="Battery20"/> <g id="Battery19"/> <g id="Battery18"/> <g id="Battery17"/> <g id="Battery16"/> <g id="Battery15"/> <g id="Battery14"/> <g id="Battery13"/> <g id="Battery12"/> <g id="Battery11"/> <g id="Battery10"/> <g id="Battery09"/> <g id="Battery08"/> <g id="Battery07"/> <g id="Battery06"> <g> <g> <path d="M15,3v3c0,0.55-0.45,1-1,1h-4C9.45,7,9,6.55,9,6V3c0-0.55,0.45-1,1-1h4C14.55,2,15,2.45,15,3z" fill="#1777BA"/> </g> <g> <path d="M18,6v15c0,0.55-0.45,1-1,1H7c-0.55,0-1-0.45-1-1V6c0-0.55,0.45-1,1-1h10C17.55,5,18,5.45,18,6z" fill="#2FA3D5"/> </g> </g> <polygon fill="#F7E73E" points="13,9 9,13 11,13 11,18 15,12 13,12 "/> </g> <g id="Battery05"/> <g id="Battery04"/> <g id="Battery03"/> <g id="Battery02"/> <g id="Battery01"/> </g>
</svg>