<?xml version="1.0" encoding="iso-8859-1"?>
<!-- Uploaded to: SVG Repo, www.svgrepo.com, Generator: SVG Repo Mixer Tools -->
<svg height="800px" width="800px" version="1.1" id="Layer_1" xmlns="http://www.w3.org/2000/svg" xmlns:xlink="http://www.w3.org/1999/xlink" 
	 viewBox="0 0 511.995 511.995" xml:space="preserve">
<path style="fill:#FFB7B2;" d="M353.634,401.768c-17.058,0-30.345-5.982-37.427-16.845l-35.669-47.625l15.189-6.315
	c14.729-6.127,30.899-10.411,49.434-13.107c13.662-2.005,26.573-2.987,39.45-2.987c9.515,0,17.587,0.529,24.704,0.981
	c5.871,0.393,10.931,0.614,15.795,0.614l11.853-0.145l2.918,10.735l0.034,0.35c7.424,22.545-8.567,47.164-41.225,63.155
	C384.107,397.689,367.697,401.768,353.634,401.768L353.634,401.768z"/>
<path style="fill:#FF9F99;" d="M292.604,441.593l-59.597-74.163l12.442-7.586c4.087-2.5,8.098-5.077,12.109-7.697
	c4.318-2.842,8.73-5.675,13.338-8.474l9.941-6.05l77.773,103.979h-66.005V441.593z"/>
<path style="fill:#FFCFCC;" d="M179.844,377.593c-50.876,0-83.345-37.905-83.345-64c0-23.381,5.214-25.31,5.214-25.31l-6.656-0.683
	c-73.242-7.484-83.012-42.991-82.313-63.488c0.708-20.608,11.81-43.418,32.111-65.963l22.955-21.922
	c0,0,86.861-52.42,135.595-61.039l20.642-3.652l-0.162,0.521l7.689-0.631c8.218-0.674,16.589-1.015,24.866-1.015
	c162.543,0,215.723,75.759,232.96,120.909c15.727,41.199,10.974,84.028-3.132,96.691c-24.149,21.692-38.852,28.655-60.476,28.655
	l0,0c-4.881,0-10.138-0.341-16.171-0.734c-4.523-0.307-9.489-0.58-14.771-0.785l-8.875-0.341l-0.128-0.393l-17.519,1.092
	c-8.252,0.521-15.616,1.263-23.177,2.364c-45.329,6.605-66.739,20.642-87.45,34.21C236.745,365.8,218.748,377.593,179.844,377.593z
	 M371.588,282.429c2.893,5.103,5.41,10.069,7.646,15.078l3.977,8.909l-0.009-0.043C380.369,297.815,375.915,289.759,371.588,282.429
	z"/>
<g>
	<path style="fill:#573A32;" d="M501.312,186.745c-18.406-48.256-74.709-129.152-244.864-129.152
		c-138.889,0-253.841,90.846-256.41,166.076c-0.674,19.772,6.733,64.725,85.001,75.622c-0.845,4.378-1.271,9.122-1.271,14.302
		c0,32.077,36.557,76.8,96.077,76.8c20.617,0,35.968-3.157,48.836-7.97l53.999,67.2c2.517,3.149,6.238,4.779,9.95,4.779h65.954
		c2.671,0,5.359-0.828,7.654-2.551c5.632-4.25,6.784-12.271,2.569-17.929l-14.541-19.439c16.478-0.102,34.236-4.676,49.997-12.39
		c37.419-18.304,56.021-48.734,48-76.86c12.314-4.215,25.37-12.322,42.513-27.716C512.252,281.815,519.71,234.992,501.312,186.745z
		 M298.739,428.793l-46.635-58.027c4.207-2.569,8.337-5.214,12.467-7.919c4.207-2.756,8.482-5.521,12.971-8.243l55.501,74.189
		H298.739z M393.067,379.095c-24.593,11.981-55.782,14.711-66.142-1.152l-26.283-35.132c12.203-5.077,26.88-9.429,46.362-12.262
		c27.93-4.096,46.677-2.85,61.79-1.877c6.656,0.444,12.646,0.683,18.415,0.614c0.102,0.375,0.043,0.759,0.188,1.135
		C434.436,348.989,415.236,368.241,393.067,379.095z M477.717,278.47c-30.199,27.127-41.139,26.402-67.251,24.678
		c-4.625-0.307-9.702-0.589-15.121-0.802c-3.703-11.204-9.634-21.257-15.275-30.677c-13.013-21.751-19.9-35.021-10.078-54.75
		c3.14-6.323,0.597-14.003-5.709-17.178c-6.306-3.149-13.935-0.572-17.135,5.726c-16.58,33.246-1.271,58.829,11.025,79.377
		c3.678,6.144,6.75,12.015,9.37,17.877c-7.356,0.461-15.232,1.169-24.226,2.475c-48.196,7.023-71.842,22.554-92.706,36.224
		c-19.925,13.047-35.661,23.373-70.767,23.373c-45.628,0-70.545-33.826-70.545-51.2c0-35.823,33.988-38.4,89.941-38.4
		c37.931,0,73.762,0,91.136-21.649c8.926-11.102,11.366-26.274,7.253-45.073c-1.297-5.999-6.579-10.078-12.467-10.078
		c-0.896,0-1.818,0.102-2.722,0.299c-6.903,1.502-11.273,8.329-9.754,15.223c2.372,10.871,1.621,18.799-2.219,23.578
		c-9.702,12.1-42.394,12.1-71.236,12.1c-35.755,0-81.186,0-102.886,25.276c-29.85-3.046-72.064-13.798-70.818-50.321
		c0.606-17.493,10.948-37.973,28.826-57.83c4.198,23.97,18.62,43.639,35.584,50.287c4.139,1.604,8.704,2.551,13.44,2.551
		c13.244,0,27.802-7.398,38.204-28.228c3.14-6.323,0.597-14.003-5.709-17.178c-6.306-3.149-13.935-0.572-17.126,5.726
		c-5.786,11.648-12.297,16-19.524,13.278c-11.494-4.514-23.987-26.069-19.669-49.894c31.701-25.182,75.477-46.515,126.08-55.467
		c-2.773,8.994-8.721,19.712-13.722,28.433c-10.052,17.425-18.705,32.503-11.324,45.346c4.309,7.45,12.646,11.221,24.789,11.221
		c7.057,0,12.766-5.726,12.766-12.8c0-7.398-6.903-12.203-13.713-12.826c1.997-4.949,6.409-12.621,9.6-18.176
		c8.115-14.123,17.015-29.653,18.603-44.826c7.817-0.64,15.761-0.973,23.817-0.973c154.871,0,204.945,70.596,221.005,112.674
		C492.685,235.795,485.628,271.37,477.717,278.47z"/>
	<path style="fill:#573A32;" d="M364.292,133.096c-34.714-13.628-77.073-12.297-93.73,21.171c-3.14,6.323-0.597,14.003,5.709,17.178
		c6.357,3.2,13.961,0.623,17.135-5.726c9.446-18.901,38.554-17.775,61.594-8.798c23.142,9.071,44.937,28.373,39.774,46.327
		c-1.946,6.801,1.946,13.901,8.73,15.846c1.169,0.35,2.372,0.503,3.541,0.503c5.564,0,10.65-3.652,12.271-9.25
		C429.197,175.942,397.726,146.169,364.292,133.096z"/>
</g>
</svg>