<!DOCTYPE svg PUBLIC "-//W3C//DTD SVG 1.1//EN" "http://www.w3.org/Graphics/SVG/1.1/DTD/svg11.dtd">
<!-- Uploaded to: SVG Repo, www.svgrepo.com, Transformed by: SVG Repo Mixer Tools -->
<svg width="800px" height="800px" viewBox="0 0 1024 1024" class="icon" version="1.1" xmlns="http://www.w3.org/2000/svg" fill="#000000" stroke="#000000" stroke-width="0.01024">
<g id="SVGRepo_bgCarrier" stroke-width="0"/>
<g id="SVGRepo_tracerCarrier" stroke-linecap="round" stroke-linejoin="round"/>
<g id="SVGRepo_iconCarrier">
<path d="M913.92 858.88c0 14.08-11.52 25.6-25.6 25.6h-563.2c-14.08 0-25.6-11.52-25.6-25.6v-294.4c0-14.08 11.52-25.6 25.6-25.6l179.2-115.2v115.2l204.8-115.2v115.2l179.2-115.2c14.08 0 25.6 11.52 25.6 25.6v409.6z" fill="#E96A60"/>
<path d="M888.32 897.28h-563.2c-21.76 0-38.4-16.64-38.4-38.4v-294.4c0-19.2 15.36-35.84 34.56-38.4l176.64-113.92c3.84-2.56 8.96-2.56 12.8 0s6.4 6.4 6.4 11.52v93.44l185.6-104.96c3.84-2.56 8.96-2.56 12.8 0 3.84 2.56 6.4 6.4 6.4 11.52v92.16l160-102.4c2.56-1.28 3.84-2.56 6.4-2.56 21.76 0 38.4 16.64 38.4 38.4v409.6c0 20.48-17.92 38.4-38.4 38.4z m-396.8-450.56l-160 102.4c-2.56 1.28-3.84 2.56-6.4 2.56-7.68 0-12.8 5.12-12.8 12.8v294.4c0 7.68 5.12 12.8 12.8 12.8h563.2c7.68 0 12.8-5.12 12.8-12.8v-409.6c0-6.4-3.84-11.52-10.24-12.8l-175.36 112.64c-3.84 2.56-8.96 2.56-12.8 0-3.84-2.56-6.4-6.4-6.4-11.52v-93.44l-185.6 104.96c-3.84 2.56-8.96 2.56-12.8 0-3.84-2.56-6.4-6.4-6.4-11.52v-90.88z" fill="#231C1C"/>
<path d="M325.12 858.88c0 14.08-11.52 25.6-25.6 25.6h-115.2c-14.08 0-25.6-11.52-25.6-25.6l25.6-460.8-12.8-115.2c0-14.08 11.52-25.6 25.6-25.6h89.6c14.08 0 25.6 11.52 25.6 25.6l-12.8 115.2 25.6 460.8z" fill="#E96A60"/>
<path d="M299.52 897.28h-115.2c-21.76 0-38.4-16.64-38.4-38.4l25.6-460.8-12.8-113.92v-1.28c0-21.76 16.64-38.4 38.4-38.4h89.6c21.76 0 38.4 16.64 38.4 38.4v1.28l-12.8 113.92 25.6 459.52v1.28c0 20.48-17.92 38.4-38.4 38.4z m-115.2-615.68l12.8 113.92v2.56l-25.6 460.8c0 6.4 6.4 11.52 12.8 11.52h115.2c6.4 0 12.8-5.12 12.8-12.8l-25.6-460.8v-2.56l12.8-113.92c0-6.4-6.4-12.8-12.8-12.8h-89.6c-7.68 2.56-12.8 7.68-12.8 14.08z" fill="#231C1C"/>
<path d="M184.32 398.08h115.2v25.6h-115.2zM184.32 359.68h115.2v25.6h-115.2z" fill="#231C1C"/>
<path d="M376.32 628.48h128v76.8h-128z" fill="#F8F4BC"/>
<path d="M504.32 718.08h-128c-7.68 0-12.8-5.12-12.8-12.8v-76.8c0-7.68 5.12-12.8 12.8-12.8h128c7.68 0 12.8 5.12 12.8 12.8v76.8c0 6.4-6.4 12.8-12.8 12.8z m-115.2-25.6h102.4v-51.2h-102.4v51.2z" fill="#231C1C"/>
<path d="M581.12 628.48h128v76.8h-128z" fill="#F8F4BC"/>
<path d="M709.12 718.08h-128c-7.68 0-12.8-5.12-12.8-12.8v-76.8c0-7.68 5.12-12.8 12.8-12.8h128c7.68 0 12.8 5.12 12.8 12.8v76.8c0 6.4-6.4 12.8-12.8 12.8z m-115.2-25.6h102.4v-51.2h-102.4v51.2z" fill="#231C1C"/>
<path d="M785.92 628.48h128v76.8h-128z" fill="#F8F4BC"/>
<path d="M913.92 718.08h-128c-7.68 0-12.8-5.12-12.8-12.8v-76.8c0-7.68 5.12-12.8 12.8-12.8h128c7.68 0 12.8 5.12 12.8 12.8v76.8c0 6.4-6.4 12.8-12.8 12.8z m-115.2-25.6h102.4v-51.2h-102.4v51.2z" fill="#231C1C"/>
<path d="M209.92 231.68c-2.56 0-5.12-1.28-7.68-2.56-6.4-3.84-7.68-11.52-3.84-17.92 1.28-1.28 19.2-29.44 1.28-47.36-25.6-25.6-12.8-64-1.28-80.64 3.84-6.4 11.52-7.68 17.92-3.84 6.4 3.84 7.68 11.52 3.84 17.92-1.28 1.28-19.2 30.72-1.28 47.36 25.6 25.6 12.8 64 1.28 80.64-2.56 3.84-6.4 6.4-10.24 6.4z" fill="#231C1C"/>
<path d="M272.64 231.68c-5.12 0-8.96-2.56-11.52-7.68-2.56-6.4 0-14.08 5.12-16.64 3.84-2.56 8.96-16.64-5.12-47.36-30.72-61.44 3.84-80.64 5.12-80.64 6.4-2.56 14.08 0 16.64 5.12 2.56 6.4 1.28 14.08-5.12 16.64-5.12 3.84-10.24 16.64 5.12 47.36 30.72 61.44-3.84 80.64-5.12 80.64-1.28 1.28-3.84 2.56-5.12 2.56z" fill="#231C1C"/>
</g>
</svg>