<?xml version="1.0" encoding="iso-8859-1"?>
<!-- Uploaded to: SVG Repo, www.svgrepo.com, Generator: SVG Repo Mixer Tools -->
<svg height="800px" width="800px" version="1.1" id="Layer_1" xmlns="http://www.w3.org/2000/svg" xmlns:xlink="http://www.w3.org/1999/xlink" 
	 viewBox="0 0 511.999 511.999" xml:space="preserve">
<path style="fill:#E6E7E8;" d="M359.426,503.189H152.569c-9.732,0-17.621-7.89-17.621-17.621V208.616
	c0-23.318,18.903-42.222,42.222-42.222h157.657c23.318,0,42.222,18.903,42.222,42.222v276.952
	C377.048,495.301,369.158,503.189,359.426,503.189z"/>
<path style="fill:#D1D3D4;" d="M334.827,166.395H282.55c23.319,0,42.221,18.903,42.221,42.222v276.952
	c0,9.732-7.89,17.621-17.621,17.621h52.277c9.732,0,17.621-7.89,17.621-17.621V208.616
	C377.048,185.298,358.145,166.395,334.827,166.395z"/>
<path style="fill:#F5BA3D;" d="M315.046,379.743H196.949c-9.732,0-17.621-7.89-17.621-17.621v-54.659
	c0-9.732,7.89-17.621,17.621-17.621h118.097c9.732,0,17.621,7.89,17.621,17.621v54.659
	C332.667,371.854,324.778,379.743,315.046,379.743z"/>
<path style="fill:#EF9325;" d="M315.046,289.841h-22.835c9.732,0,17.621,7.89,17.621,17.621v54.659
	c0,9.732-7.89,17.621-17.621,17.621h22.835c9.732,0,17.621-7.89,17.621-17.621v-54.659
	C332.667,297.73,324.778,289.841,315.046,289.841z"/>
<path style="fill:#588EED;" d="M319.661,166.395H192.335v-61.171c0-9.732,7.89-17.621,17.621-17.621h92.083
	c9.732,0,17.621,7.89,17.621,17.621V166.395z"/>
<path style="fill:#E44F50;" d="M277.228,87.602h-42.462l6.632-71.469c0.385-4.149,3.866-7.322,8.034-7.322h13.484
	c4.182,0,7.671,3.195,8.038,7.362L277.228,87.602z"/>
<path style="fill:#447BCC;" d="M302.039,87.602h-40.964c9.732,0,17.621,7.89,17.621,17.621v61.17h40.964v-61.17
	C319.661,95.492,311.772,87.602,302.039,87.602z"/>
<path style="fill:#DD263D;" d="M270.954,16.173c-0.367-4.167-3.856-7.362-8.038-7.362h-13.484c-0.203,0-0.402,0.014-0.601,0.028
	c3.912,0.289,7.091,3.368,7.439,7.334l6.274,71.429h14.685L270.954,16.173z"/>
<path d="M377.048,269.87c-4.867,0-8.811,3.944-8.811,8.811v206.887c0,4.859-3.952,8.811-8.811,8.811H152.569
	c-4.859,0-8.811-3.952-8.811-8.811V208.617c0-18.424,14.989-33.411,33.41-33.411h15.165h127.327h15.165
	c18.423,0,33.41,14.988,33.41,33.411c0,4.866,3.944,8.811,8.811,8.811c4.867,0,8.811-3.945,8.811-8.811
	c0-28.14-22.893-51.033-51.032-51.033h-6.354v-52.36c0-14.575-11.858-26.432-26.432-26.432h-16.74l-6.216-70.753
	C278.685,3.49,274.874,0,270.307,0h-28.23c-4.551,0-8.353,3.466-8.773,7.997l-6.568,70.795h-16.78
	c-14.574,0-26.432,11.857-26.432,26.432v52.359h-6.354c-28.139,0-51.032,22.893-51.032,51.033v276.951
	c0,14.574,11.858,26.432,26.432,26.432h206.857c14.574,0,26.432-11.858,26.432-26.432V278.681
	C385.858,273.814,381.915,269.87,377.048,269.87z M250.107,17.621h12.128l5.373,61.17h-23.177L250.107,17.621z M201.146,105.224
	c0-4.859,3.952-8.811,8.811-8.811h24.811h42.462h24.811c4.859,0,8.811,3.952,8.811,8.811v52.359h-14.605v-36.891
	c0-4.866-3.944-8.811-8.811-8.811c-4.867,0-8.811,3.945-8.811,8.811v36.891h-13.816v-36.891c0-4.866-3.944-8.811-8.811-8.811
	c-4.867,0-8.811,3.945-8.811,8.811v36.891h-13.816v-36.891c0-4.866-3.944-8.811-8.811-8.811s-8.811,3.945-8.811,8.811v36.891
	h-14.605v-52.359H201.146z"/>
<path d="M341.478,362.121v-54.658c0-14.574-11.858-26.432-26.432-26.432H196.949c-14.574,0-26.432,11.858-26.432,26.432v54.658
	c0,14.574,11.858,26.432,26.432,26.432h118.097C329.62,388.553,341.478,376.695,341.478,362.121z M188.139,362.121v-54.658
	c0-4.859,3.952-8.811,8.811-8.811h118.097c4.859,0,8.811,3.952,8.811,8.811v54.658c0,4.859-3.952,8.811-8.811,8.811H196.949
	C192.092,370.932,188.139,366.98,188.139,362.121z"/>
<circle cx="377.05" cy="244.363" r="8.811"/>
</svg>