<?xml version="1.0" encoding="iso-8859-1"?>
<!-- Uploaded to: SVG Repo, www.svgrepo.com, Generator: SVG Repo Mixer Tools -->
<svg height="800px" width="800px" version="1.1" id="Layer_1" xmlns="http://www.w3.org/2000/svg" xmlns:xlink="http://www.w3.org/1999/xlink" 
	 viewBox="0 0 511.999 511.999" xml:space="preserve">
<path style="fill:#91DC5A;" d="M338.538,140.228C308.691,72.992,273.071,18.413,271.57,16.123
	c-3.441-5.249-9.295-8.411-15.571-8.411c-6.276,0-12.13,3.162-15.571,8.411c-1.501,2.291-37.121,56.87-66.968,124.109
	c-41.71,93.965-50.678,164.161-26.654,208.639c18.641,34.51,55.25,52.045,108.824,52.124c0.122,0.002,0.24,0,0.369,0.003
	c0.198,0,0.396-0.003,0.593-0.009c53.45-0.129,89.987-17.665,108.6-52.126C389.216,304.387,380.247,234.192,338.538,140.228z"/>
<g>
	<path style="fill:#6DC82A;" d="M255.98,7.713c-6.269,0.006-12.115,3.166-15.553,8.41c-1.501,2.291-37.121,56.87-66.968,124.109
		c-41.71,93.965-50.678,164.161-26.654,208.638c16.071,29.753,45.511,46.877,87.652,51.086c0.429-0.009,0.715-0.031,0.795-0.071
		C75.011,329.014,255.999,7.716,255.999,7.716S255.988,7.714,255.98,7.713z"/>
	<path style="fill:#6DC82A;" d="M277.884,115.636c-2.799,0-5.5-1.528-6.866-4.188c-6.816-13.264-14.126-26.766-21.728-40.13
		c-2.106-3.703-0.812-8.411,2.891-10.517c3.702-2.107,8.411-0.812,10.517,2.891c7.709,13.554,15.125,27.249,22.04,40.706
		c1.947,3.788,0.454,8.439-3.335,10.385C280.275,115.361,279.071,115.636,277.884,115.636z"/>
	<path style="fill:#6DC82A;" d="M300.49,162.797c-2.959,0-5.781-1.712-7.056-4.593c-1.463-3.305-2.987-6.685-4.53-10.045
		c-1.778-3.871-0.081-8.45,3.789-10.227c3.872-1.779,8.451-0.08,10.227,3.79c1.572,3.423,3.126,6.868,4.617,10.237
		c1.725,3.895-0.035,8.45-3.93,10.174C302.593,162.585,301.533,162.797,300.49,162.797z"/>
</g>
<path d="M339.054,161.017c0.373,0.903,0.742,1.804,1.109,2.704c1.22,2.991,4.102,4.803,7.145,4.803c0.97,0,1.955-0.184,2.908-0.573
	c3.944-1.607,5.839-6.108,4.232-10.053c-0.374-0.919-0.753-1.842-1.134-2.765c-1.625-3.938-6.135-5.81-10.072-4.187
	C339.304,152.571,337.429,157.079,339.054,161.017z"/>
<path d="M363.621,181.775c-1.442-4.007-5.858-6.088-9.869-4.646c-4.007,1.443-6.088,5.861-4.646,9.869
	c25.14,69.855,28.269,123.081,9.299,158.2c-16.341,30.255-48.188,46.355-94.695,47.938v-55.788l48.126-48.126
	c3.012-3.012,3.012-7.896,0-10.907c-3.012-3.012-7.896-3.012-10.907,0l-37.219,37.219v-49.145l48.126-48.126
	c3.012-3.012,3.012-7.896,0-10.907c-3.012-3.012-7.896-3.012-10.907,0l-37.219,37.219v-82.151c0-4.259-3.453-7.713-7.713-7.713
	c-4.259,0-7.713,3.453-7.713,7.713v83.182l-38.251-38.251c-3.012-3.012-7.896-3.012-10.907,0c-3.012,3.012-3.012,7.896,0,10.907
	l49.158,49.158v49.145l-38.251-38.251c-3.012-3.012-7.896-3.012-10.907,0c-3.012,3.012-3.012,7.896,0,10.907l49.158,49.158v54.763
	c-46.506-1.582-78.351-17.681-94.694-47.937c-22.83-42.266-13.774-110.176,26.917-201.844c29.571-66.62,64.88-120.739,66.368-123.01
	c2.023-3.085,5.433-4.927,9.122-4.927c3.689,0,7.099,1.842,9.121,4.928c1.418,2.163,35.063,53.69,64.235,118.244
	c1.754,3.881,6.322,5.608,10.204,3.852c3.882-1.754,5.607-6.322,3.852-10.204c-29.663-65.641-63.948-118.148-65.392-120.35
	C273.136,4.447,264.904,0,255.999,0c-8.906,0-17.139,4.447-22.023,11.895c-1.517,2.314-37.491,57.454-67.566,125.208
	c-42.73,96.262-51.609,168.743-26.39,215.433c19.207,35.559,55.619,54.383,108.267,56.039v95.712c0,4.259,3.453,7.713,7.713,7.713
	c4.259,0,7.713-3.453,7.713-7.713V408.57c52.651-1.657,89.06-20.481,108.267-56.04C393.121,313.385,390.309,255.935,363.621,181.775
	z"/>
</svg>