<?xml version="1.0" encoding="iso-8859-1"?>
<!-- Uploaded to: SVG Repo, www.svgrepo.com, Generator: SVG Repo Mixer Tools -->
<svg height="800px" width="800px" version="1.1" id="Layer_1" xmlns="http://www.w3.org/2000/svg" xmlns:xlink="http://www.w3.org/1999/xlink" 
	 viewBox="0 0 512.035 512.035" xml:space="preserve">
<g transform="translate(1 1)">
	<polygon style="fill:#FFE100;" points="380.475,383.017 468.368,255.017 380.475,127.017 280.635,127.017 374.501,255.017 
		280.635,383.017 	"/>
	<polygon style="fill:#FFA800;" points="380.475,383.017 383.035,383.017 502.501,255.017 383.035,127.017 380.475,127.017 
		468.368,255.017 	"/>
	<g>
		<polygon style="fill:#FFFFFF;" points="280.635,383.017 374.501,255.017 246.501,383.017 		"/>
		<polygon style="fill:#FFFFFF;" points="280.635,127.017 246.501,127.017 374.501,255.017 		"/>
	</g>
	<polygon style="fill:#63D3FD;" points="141.541,383.017 229.435,255.017 141.541,127.017 41.701,127.017 135.568,255.017 
		41.701,383.017 	"/>
	<polygon style="fill:#3DB9F9;" points="141.541,383.017 144.101,383.017 263.568,255.017 144.101,127.017 141.541,127.017 
		229.435,255.017 	"/>
	<g>
		<polygon style="fill:#FFFFFF;" points="41.701,383.017 135.568,255.017 7.568,383.017 		"/>
		<polygon style="fill:#FFFFFF;" points="41.701,127.017 7.568,127.017 135.568,255.017 		"/>
	</g>
	<path d="M383.035,391.551H246.501c-3.413,0-6.827-1.707-7.68-5.12s-0.853-6.827,1.707-9.387l122.027-122.027L240.528,132.991
		c-2.56-2.56-3.413-5.973-1.707-9.387c0.853-3.413,4.267-5.12,7.68-5.12h136.533c2.56,0,4.267,0.853,5.973,2.56l119.467,128
		c3.413,3.413,3.413,8.533,0,11.947l-34.133,36.693c-3.413,3.413-8.533,3.413-11.947,0s-3.413-8.533,0-11.947l29.013-30.72
		L379.621,135.551h-112.64l113.493,113.493c3.413,3.413,3.413,8.533,0,11.947L266.981,374.484h112.64l40.107-42.667
		c3.413-3.413,8.533-3.413,11.947,0c3.413,3.413,3.413,8.533,0,11.947l-42.667,46.08
		C387.301,390.697,385.595,391.551,383.035,391.551z"/>
	<path d="M441.061,314.751c0,5.12,3.413,8.533,8.533,8.533c5.12,0,8.533-3.413,8.533-8.533s-3.413-8.533-8.533-8.533
		C444.475,306.217,441.061,309.631,441.061,314.751"/>
	<path d="M144.101,391.551H7.568c-3.413,0-6.827-1.707-7.68-5.12s-0.853-6.827,1.707-9.387l122.027-122.027L1.595,132.991
		c-2.56-2.56-3.413-5.973-1.707-9.387c0.853-3.413,4.267-5.12,7.68-5.12h136.533c2.56,0,4.267,0.853,5.973,2.56l119.467,128
		c3.413,3.413,3.413,8.533,0,11.947l-119.467,128C148.368,390.697,146.661,391.551,144.101,391.551z M28.048,374.484h112.64
		l111.787-119.467L140.688,135.551H28.048l113.493,113.493c3.413,3.413,3.413,8.533,0,11.947L28.048,374.484z"/>
</g>
</svg>