<?xml version="1.0" encoding="iso-8859-1"?>
<!-- Uploaded to: SVG Repo, www.svgrepo.com, Generator: SVG Repo Mixer Tools -->
<svg version="1.1" id="Layer_1" xmlns="http://www.w3.org/2000/svg" xmlns:xlink="http://www.w3.org/1999/xlink" 
	 viewBox="0 0 515 515" xml:space="preserve">
<path style="fill:#5D9CEC; stroke:#000000; stroke-width:7;" d="M501.328,245.33c0,135.489-109.841,245.315-245.347,245.315
	c-135.48,0-245.321-109.826-245.321-245.315C10.66,109.833,120.501,0,255.981,0C391.487,0,501.328,109.833,501.328,245.33z"/>
<g>
	<path style="fill:#E6E9ED;" d="M127.985,106.661c-5.875,0-10.656,4.781-10.656,10.671s4.781,10.664,10.656,10.664
		c5.906,0,10.672-4.773,10.672-10.664S133.891,106.661,127.985,106.661z"/>
	<path style="fill:#E6E9ED;" d="M191.983,42.663c-5.875,0-10.655,4.781-10.655,10.672c0,5.89,4.78,10.664,10.655,10.664
		c5.906,0,10.672-4.773,10.672-10.664C202.655,47.444,197.89,42.663,191.983,42.663z"/>
	<path style="fill:#E6E9ED;" d="M255.981,106.661c-5.875,0-10.655,4.781-10.655,10.671s4.78,10.664,10.655,10.664
		c5.906,0,10.672-4.773,10.672-10.664S261.888,106.661,255.981,106.661z"/>
	<path style="fill:#E6E9ED;" d="M319.988,42.663c-5.875,0-10.655,4.781-10.655,10.672c0,5.89,4.78,10.664,10.655,10.664
		c5.906,0,10.656-4.773,10.656-10.664C330.644,47.444,325.894,42.663,319.988,42.663z"/>
	<path style="fill:#E6E9ED;" d="M383.987,106.661c-5.875,0-10.656,4.781-10.656,10.671s4.781,10.664,10.656,10.664
		c5.906,0,10.656-4.773,10.656-10.664S389.893,106.661,383.987,106.661z"/>
	<path style="fill:#E6E9ED;" d="M63.986,170.66c-5.875,0-10.655,4.781-10.655,10.672c0,5.89,4.78,10.664,10.655,10.664
		c5.906,0,10.672-4.773,10.672-10.664C74.658,175.441,69.892,170.66,63.986,170.66z"/>
	<path style="fill:#E6E9ED;" d="M127.985,234.659c-5.875,0-10.656,4.781-10.656,10.671s4.781,10.664,10.656,10.664
		c5.906,0,10.672-4.773,10.672-10.664S133.891,234.659,127.985,234.659z"/>
	<path style="fill:#E6E9ED;" d="M191.983,170.66c-5.875,0-10.655,4.781-10.655,10.672c0,5.89,4.78,10.664,10.655,10.664
		c5.906,0,10.672-4.773,10.672-10.664C202.655,175.441,197.89,170.66,191.983,170.66z"/>
	<path style="fill:#E6E9ED;" d="M255.981,234.659c-5.875,0-10.655,4.781-10.655,10.671s4.78,10.664,10.655,10.664
		c5.906,0,10.672-4.773,10.672-10.664S261.888,234.659,255.981,234.659z"/>
	<path style="fill:#E6E9ED;" d="M319.988,170.66c-5.875,0-10.655,4.781-10.655,10.672c0,5.89,4.78,10.664,10.655,10.664
		c5.906,0,10.656-4.773,10.656-10.664C330.644,175.441,325.894,170.66,319.988,170.66z"/>
	<path style="fill:#E6E9ED;" d="M383.987,234.659c-5.875,0-10.656,4.781-10.656,10.671s4.781,10.664,10.656,10.664
		c5.906,0,10.656-4.773,10.656-10.664S389.893,234.659,383.987,234.659z"/>
	<path style="fill:#E6E9ED;" d="M447.985,170.66c-5.875,0-10.656,4.781-10.656,10.672c0,5.89,4.781,10.664,10.656,10.664
		c5.906,0,10.656-4.773,10.656-10.664C458.641,175.441,453.891,170.66,447.985,170.66z"/>
	<path style="fill:#E6E9ED;" d="M63.986,298.649c-5.875,0-10.655,4.781-10.655,10.688c0,5.874,4.78,10.655,10.655,10.655
		c5.906,0,10.672-4.781,10.672-10.655C74.658,303.431,69.892,298.649,63.986,298.649z"/>
	<path style="fill:#E6E9ED;" d="M127.985,362.648c-5.875,0-10.656,4.78-10.656,10.687c0,5.875,4.781,10.656,10.656,10.656
		c5.906,0,10.672-4.781,10.672-10.656C138.657,367.429,133.891,362.648,127.985,362.648z"/>
	<path style="fill:#E6E9ED;" d="M255.981,362.648c-5.875,0-10.655,4.78-10.655,10.687c0,5.875,4.78,10.656,10.655,10.656
		c5.906,0,10.672-4.781,10.672-10.656C266.653,367.429,261.888,362.648,255.981,362.648z"/>
	<path style="fill:#E6E9ED;" d="M383.987,362.648c-5.875,0-10.656,4.78-10.656,10.687c0,5.875,4.781,10.656,10.656,10.656
		c5.906,0,10.656-4.781,10.656-10.656C394.643,367.429,389.893,362.648,383.987,362.648z"/>
	<path style="fill:#E6E9ED;" d="M447.985,298.649c-5.875,0-10.656,4.781-10.656,10.688c0,5.874,4.781,10.655,10.656,10.655
		c5.906,0,10.656-4.781,10.656-10.655C458.641,303.431,453.891,298.649,447.985,298.649z"/>
</g>
<rect x="223.984" y="362.644" style="fill:#7F4545;" width="64.01" height="59.09"/>
<polygon style="fill:#8CC153;" points="159.969,383.991 255.966,213.331 351.956,383.991 "/>
<polygon style="fill:#A0D468;" points="181.328,298.649 255.981,149.332 330.644,298.649 "/>
<polygon style="fill:#ED5564; stroke:#000000; stroke-width:7;" points="426.641,421.74 85.33,421.74 63.986,511.988 447.985,511.988 "/>
<path style="fill:#FFCE54; stroke:#000000; stroke-width:7;" d="M351.987,447.99H159.984c-5.875,0-10.656,4.78-10.656,10.655c0,5.906,4.781,10.688,10.656,10.688
	h192.003c5.906,0,10.656-4.781,10.656-10.688C362.643,452.77,357.893,447.99,351.987,447.99z"/>
	<path style="fill:#434A54; stroke:#000000; stroke-width:7;" d="M447.985,511.988H63.986c-5.875,0-10.655-4.781-10.655-10.656c0-5.906,4.78-10.687,10.655-10.687
	h383.999c5.906,0,10.656,4.78,10.656,10.687C458.641,507.207,453.891,511.988,447.985,511.988z"/>
</svg>