<?xml version="1.0" encoding="iso-8859-1"?>
<!-- Uploaded to: SVG Repo, www.svgrepo.com, Generator: SVG Repo Mixer Tools -->
<svg height="800px" width="800px" version="1.1" id="Layer_1" xmlns="http://www.w3.org/2000/svg" xmlns:xlink="http://www.w3.org/1999/xlink" 
	 viewBox="0 0 512 512" xml:space="preserve">
<path style="fill:#E18C36;" d="M245.324,14.069l-57.829,100.164h137.011L266.677,14.069C261.931,5.851,250.07,5.851,245.324,14.069z
	"/>
<path style="fill:#EC8560;" d="M77.381,92.479l29.934,111.718l96.882-96.882L92.479,77.381
	C83.313,74.925,74.925,83.312,77.381,92.479z"/>
<path style="fill:#E18C36;" d="M14.07,266.675l100.164,57.829v-137.01L14.07,245.324C5.852,250.069,5.852,261.931,14.07,266.675z"/>
<path style="fill:#EC8560;" d="M92.479,434.619l111.718-29.934l-96.882-96.882L77.381,419.521
	C74.925,428.688,83.313,437.075,92.479,434.619z"/>
<path style="fill:#E18C36;" d="M266.676,497.93l57.829-100.164h-137.01l57.829,100.164
	C250.07,506.149,261.931,506.149,266.676,497.93z"/>
<path style="fill:#EC8560;" d="M434.62,419.521l-29.934-111.718l-96.882,96.882l111.718,29.934
	C428.688,437.075,437.076,428.688,434.62,419.521z"/>
<path style="fill:#E18C36;" d="M497.93,245.324l-100.164-57.829v137.011l100.164-57.829
	C506.149,261.931,506.149,250.069,497.93,245.324z"/>
<path style="fill:#EC8560;" d="M419.522,77.381l-111.718,29.934l96.882,96.882L434.62,92.479
	C437.076,83.312,428.688,74.925,419.522,77.381z"/>
<path style="opacity:0.1;enable-background:new    ;" d="M101.653,183.064l5.663,21.133l89.722-89.722
	C157.395,124.873,123.613,149.727,101.653,183.064z"/>
<path style="opacity:0.1;enable-background:new    ;" d="M91.618,200.552c-10.836,21.904-16.935,46.569-16.935,72.661
	c0,10.264,0.952,20.305,2.754,30.047l36.798,21.245V187.494L91.618,200.552z"/>
<path style="opacity:0.1;enable-background:new    ;" d="M107.316,307.803l-12.059,45.005
	c14.907,26.824,37.112,49.028,63.936,63.936l45.005-12.059L107.316,307.803z"/>
<path style="opacity:0.1;enable-background:new    ;" d="M187.495,397.766l21.245,36.798c9.742,1.803,19.783,2.754,30.047,2.754
	c26.093,0,50.757-6.1,72.661-16.935l13.057-22.616H187.495V397.766z"/>
<path style="opacity:0.1;enable-background:new    ;" d="M307.804,404.685l21.132,5.663c33.337-21.959,58.192-55.741,68.589-95.384
	L307.804,404.685z"/>
<circle style="fill:#F7D64C;" cx="256" cy="255.999" r="164.103"/>
<path style="opacity:0.3;fill:#FFFFFF;enable-background:new    ;" d="M287.522,94.933c-4.992,9.877-7.821,21.034-7.821,32.856
	c0,40.297,32.668,72.964,72.964,72.964c19.118,0,36.511-7.362,49.521-19.394C379.61,137.233,337.639,104.684,287.522,94.933z"/>
<path d="M501.883,238.477l-85.043-49.1l25.417-94.853c1.893-7.066-0.064-14.372-5.237-19.543c-5.171-5.172-12.48-7.131-19.543-5.237
	l-94.853,25.415l-49.1-85.043C269.866,3.782,263.314,0,256,0s-13.865,3.782-17.522,10.117l-49.1,85.043L94.525,69.744
	c-7.066-1.892-14.372,0.064-19.544,5.237c-5.172,5.172-7.13,12.478-5.237,19.543l25.417,94.853l-85.043,49.1
	c-6.335,3.658-10.117,10.208-10.117,17.522c0,7.314,3.782,13.865,10.117,17.522l85.043,49.1l-25.417,94.853
	c-1.893,7.066,0.065,14.372,5.237,19.543c3.874,3.874,8.944,5.945,14.215,5.945c1.766,0,3.555-0.233,5.328-0.707l94.853-25.417
	l49.1,85.043C242.135,508.218,248.686,512,256,512c7.314,0,13.865-3.782,17.522-10.117l49.1-85.043l94.853,25.417
	c1.774,0.475,3.562,0.707,5.328,0.707c5.271,0,10.342-2.07,14.215-5.945c5.172-5.172,7.13-12.478,5.237-19.543l-25.417-94.853
	l85.043-49.1c6.335-3.658,10.117-10.208,10.117-17.522C511.999,248.685,508.218,242.135,501.883,238.477z M90.094,301.439
	l-72.07-41.61c-1.995-1.152-2.212-3.062-2.212-3.83c0-0.767,0.216-2.677,2.212-3.83l72.07-41.61
	c-3.971,14.481-6.103,29.715-6.103,45.439C83.99,271.723,86.123,286.957,90.094,301.439z M252.172,18.023
	c1.152-1.995,3.062-2.212,3.83-2.212c0.767,0,2.677,0.216,3.83,2.212l41.61,72.07c-14.481-3.971-29.715-6.103-45.439-6.103
	s-30.958,2.132-45.439,6.103L252.172,18.023z M85.017,90.433c-0.597-2.226,0.601-3.729,1.144-4.271
	c0.543-0.543,2.045-1.742,4.271-1.144l80.444,21.555c-26.745,15.295-49.011,37.561-64.304,64.304L85.017,90.433z M90.433,426.982
	c-2.226,0.598-3.728-0.602-4.271-1.144c-0.543-0.543-1.74-2.045-1.144-4.271l21.555-80.444
	c15.295,26.745,37.561,49.011,64.304,64.305L90.433,426.982z M259.83,493.977c-1.152,1.995-3.062,2.212-3.83,2.212
	c-0.767,0-2.677-0.216-3.83-2.212l-41.61-72.07c14.481,3.971,29.715,6.103,45.439,6.103s30.958-2.132,45.439-6.103L259.83,493.977z
	 M256,412.199c-86.128,0-156.199-70.07-156.199-156.199S169.872,99.801,256,99.801s156.199,70.07,156.199,156.199
	S342.129,412.199,256,412.199z M426.983,421.567c0.597,2.226-0.601,3.729-1.144,4.271c-0.543,0.543-2.046,1.742-4.271,1.144
	l-80.444-21.555c26.745-15.295,49.01-37.561,64.304-64.305L426.983,421.567z M405.429,170.877
	c-15.295-26.745-37.561-49.011-64.304-64.304l80.444-21.555c2.225-0.598,3.728,0.602,4.271,1.144
	c0.543,0.543,1.74,2.045,1.144,4.271L405.429,170.877z M493.977,259.829l-72.07,41.61c3.971-14.481,6.103-29.715,6.103-45.439
	c0-15.724-2.132-30.958-6.103-45.439l72.07,41.61c1.995,1.152,2.211,3.062,2.211,3.83
	C496.189,256.767,495.973,258.677,493.977,259.829z M297.103,261.905c-4.366,0-7.906,3.54-7.906,7.906
	c0,6.973-5.672,12.646-12.645,12.646c-6.973,0-12.646-5.673-12.646-12.646c0-4.366-3.54-7.906-7.906-7.906
	c-4.366,0-7.906,3.54-7.906,7.906c0,6.973-5.673,12.646-12.646,12.646c-6.973,0-12.645-5.673-12.645-12.646
	c0-4.366-3.54-7.906-7.906-7.906s-7.906,3.54-7.906,7.906c0,15.691,12.765,28.458,28.457,28.458c8.071,0,15.368-3.377,20.552-8.792
	c5.184,5.416,12.481,8.792,20.552,8.792c15.691,0,28.457-12.766,28.457-28.458C305.008,265.444,301.469,261.905,297.103,261.905z
	 M350.924,222.468c-4.366,0-7.906,3.54-7.906,7.906v8.729c0,4.366,3.54,7.906,7.906,7.906s7.906-3.54,7.906-7.906v-8.729
	C358.83,226.008,355.29,222.468,350.924,222.468z M161.077,222.468c-4.366,0-7.906,3.54-7.906,7.906v8.729
	c0,4.366,3.54,7.906,7.906,7.906s7.906-3.54,7.906-7.906v-8.729C168.983,226.008,165.443,222.468,161.077,222.468z"/>
</svg>