<!DOCTYPE svg PUBLIC "-//W3C//DTD SVG 1.1//EN" "http://www.w3.org/Graphics/SVG/1.1/DTD/svg11.dtd">
<!-- Uploaded to: SVG Repo, www.svgrepo.com, Transformed by: SVG Repo Mixer Tools -->
<svg height="800px" width="800px" version="1.1" id="Layer_1" xmlns="http://www.w3.org/2000/svg" xmlns:xlink="http://www.w3.org/1999/xlink" viewBox="0 0 512 512" xml:space="preserve" fill="#000000">
<g id="SVGRepo_bgCarrier" stroke-width="0"/>
<g id="SVGRepo_tracerCarrier" stroke-linecap="round" stroke-linejoin="round"/>
<g id="SVGRepo_iconCarrier"> <path style="fill:#FFCA66;" d="M154.138,337.83h-45.863c-32.359,0-58.592,26.232-58.592,58.592l0,0 c0,32.359,26.232,58.592,58.592,58.592h157.202v-86.395L154.138,337.83z"/> <path style="fill:#FFEECC;" d="M348.697,125.985L162.837,8.801h-59.012l0,0c-55.87,0-91.714,59.393-65.677,108.825l127.274,241.628 h-0.02c23.35,43.254-7.973,95.76-57.128,95.76h309.221c49.154,0,80.477-52.506,57.128-95.76L348.697,125.985z"/> <path style="fill:#FFCA66;" d="M103.825,8.801c32.359,0,58.592,26.233,58.592,58.592l0,0c0,32.359-26.233,58.592-58.592,58.592 h244.873c32.359,0,58.592-26.233,58.592-58.592l0,0c0-32.359-26.233-58.592-58.592-58.592H103.825z"/> <g> <path style="fill:#665F52;" d="M327.577,181.722H117.906c-4.861,0-8.801-3.94-8.801-8.801s3.939-8.801,8.801-8.801h209.671 c4.861,0,8.801,3.94,8.801,8.801S332.437,181.722,327.577,181.722z"/> <path style="fill:#665F52;" d="M363.809,223.929h-209.67c-4.861,0-8.801-3.94-8.801-8.801s3.939-8.801,8.801-8.801h209.67 c4.861,0,8.801,3.94,8.801,8.801S368.669,223.929,363.809,223.929z"/> </g> <polygon style="fill:#FF8095;" points="417.599,368.618 417.599,503.199 384.431,475.23 351.264,503.199 351.264,368.618 "/> <path style="opacity:0.15;fill:#000000;enable-background:new ;" d="M351.264,421.442c9.823,5.501,21.131,8.653,33.168,8.653 s23.346-3.152,33.169-8.653v-52.824h-66.337V421.442z"/> <circle style="fill:#FFCA66;" cx="384.434" cy="361.986" r="44.637"/> <g> <path style="opacity:0.15;fill:#000000;enable-background:new ;" d="M86.059,396.421L86.059,396.421 c0-32.359,26.232-58.592,58.592-58.592h-36.376c-32.359,0-58.592,26.232-58.592,58.592l0,0c0,32.359,26.232,58.592,58.592,58.592 h36.376C112.291,455.013,86.059,428.78,86.059,396.421z"/> <path style="opacity:0.15;fill:#000000;enable-background:new ;" d="M361.557,361.985c0-20.795,14.219-38.269,33.465-43.23 c-3.572-0.921-7.316-1.412-11.177-1.412c-24.655,0-44.641,19.987-44.641,44.64s19.987,44.64,44.641,44.64 c3.859,0,7.604-0.49,11.177-1.412C375.775,400.254,361.557,382.78,361.557,361.985z"/> </g> <g> <path style="fill:#000000;" d="M336.385,172.92c0-4.861-3.94-8.801-8.801-8.801h-209.67c-4.86,0-8.801,3.939-8.801,8.801 c0,4.861,3.94,8.801,8.801,8.801h209.67C332.444,181.721,336.385,177.781,336.385,172.92z"/> <path style="fill:#000000;" d="M363.817,206.327h-209.67c-4.86,0-8.801,3.939-8.801,8.801c0,4.861,3.94,8.801,8.801,8.801h209.67 c4.86,0,8.801-3.939,8.801-8.801C372.617,210.266,368.677,206.327,363.817,206.327z"/> <path style="fill:#000000;" d="M482.376,355.074L362.667,133.321c30.483-6.448,53.431-33.556,53.431-65.929 C416.098,30.233,385.866,0,348.706,0H103.833l0,0C74.485,0,47.909,15.001,32.744,40.128s-16.052,55.632-2.375,81.598 l109.193,207.302h-31.279c-37.16,0-67.393,30.233-67.393,67.393s30.232,67.393,67.393,67.393h234.187v39.386 c0,3.424,1.985,6.537,5.091,7.98c1.185,0.551,2.45,0.82,3.708,0.82c2.038,0,4.056-0.709,5.675-2.073l27.494-23.187l27.495,23.187 c2.618,2.207,6.279,2.698,9.383,1.252c3.105-1.442,5.091-4.556,5.091-7.98v-39.917c23.048-2.734,43.324-16.068,55.061-36.539 C494.239,404.471,494.58,377.677,482.376,355.074z M348.706,17.601c27.456,0,49.791,22.336,49.791,49.791 c0,27.447-22.324,49.779-49.769,49.79c-0.009,0-0.019,0-0.027,0H149.203c13.525-12.334,22.023-30.089,22.023-49.791 s-8.498-37.457-22.023-49.79H348.706z M108.284,446.213c-27.454,0-49.791-22.336-49.791-49.791s22.336-49.791,49.791-49.791h40.552 l8.546,16.225c0.088,0.196,0.183,0.388,0.285,0.579c9.479,17.56,9.035,38.273-1.187,55.411 C146.256,435.982,128.239,446.213,108.284,446.213z M408.807,484.265L390.112,468.5c-1.638-1.382-3.656-2.073-5.673-2.073 s-4.034,0.691-5.673,2.073l-18.694,15.765c0,0,0-29.23,0-29.275v-45.456c0.106,0.054,0.215,0.1,0.32,0.153 c0.769,0.388,1.547,0.759,2.336,1.112c0.092,0.041,0.183,0.084,0.275,0.124c13.515,5.936,29.355,5.943,42.867,0.001 c0.097-0.042,0.192-0.088,0.29-0.131c0.783-0.35,1.556-0.717,2.319-1.103c0.109-0.055,0.221-0.101,0.329-0.156L408.807,484.265 L408.807,484.265z M405.988,390.458c-5.631,4.306-12.538,7.004-19.993,7.328c-20.099,0.875-37.397-15.721-37.397-35.802 c0-19.763,16.078-35.84,35.84-35.84c19.761,0,35.84,16.077,35.84,35.84C420.279,373.431,414.637,383.843,405.988,390.458z M466.199,417.988c-8.578,14.96-23.136,24.91-39.792,27.527V395.01c7.174-9.097,11.472-20.565,11.472-33.026 c0-29.467-23.974-53.441-53.441-53.441c-29.467,0-53.441,23.974-53.441,53.441c0,12.459,4.298,23.928,11.472,33.026v51.202H156.197 c5.979-5.137,11.191-11.299,15.398-18.351c13.328-22.339,14.004-49.308,1.845-72.26c-0.069-0.151-0.143-0.302-0.221-0.449 l-11.316-21.484c-0.009-0.018-0.019-0.036-0.028-0.053L45.943,113.524c-10.778-20.462-10.078-44.501,1.872-64.302 c11.95-19.8,32.892-31.621,56.019-31.621l0,0c27.454,0,49.791,22.336,49.791,49.791s-22.336,49.791-49.791,49.791 c-4.86,0-8.801,3.939-8.801,8.801s3.94,8.801,8.801,8.801h239.623l123.432,228.649C476.177,380.642,475.92,401.037,466.199,417.988 z"/> </g> </g>
</svg>